# Blender3D v249 OBJ File: clamps.blend
# www.blender3d.org
v 1.578125 -0.703125 0.000000
v 0.546875 0.328125 0.000000
v 3.500000 0.875000 -4.875000
v 2.125000 2.250000 -4.875000
v 2.125000 2.250000 -0.500000
v 1.421875 1.546875 0.375000
v 2.796875 0.171875 0.375000
v 3.500000 0.875000 -0.500000
v 0.375000 2.625000 -0.750000
v -4.875000 2.625000 -0.750000
v 0.000000 2.500000 0.000000
v -4.750000 2.500000 0.000000
v -4.750000 2.000000 0.000000
v -4.875000 1.875000 -0.750000
v -0.750000 1.500000 0.000000
v -0.875000 1.375000 -0.750000
v 0.500000 -1.375000 -0.750000
v -3.500000 -1.875000 -0.750000
v 0.750000 -1.500000 0.000000
v -3.375000 -2.000000 0.000000
v -3.375000 -2.500000 0.000000
v -3.500000 -2.625000 -0.750000
v 3.875000 -2.500000 0.000000
v 4.125000 -2.625000 -0.750000
v 3.875000 -1.375000 0.000000
v 4.125000 -1.125000 -0.750000
vt 0.232422 0.404297
vt 0.640625 0.523438
vt 0.542969 0.562500
vt 0.667969 0.404297
vt 0.460938 0.826172
vt 0.722656 0.908203
vt 0.722656 0.814453
vt 0.398438 0.494141
vt 0.335938 0.576172
vt 0.080078 0.003906
vt 0.017578 0.003906
vt 0.029297 0.068359
vt 0.070312 0.068359
vt 0.248047 0.156250
vt 0.222656 0.107422
vt 0.320312 0.132812
vt 0.320312 0.076172
vt 0.978516 0.068359
vt 0.986328 0.003906
vt 0.923828 0.003906
vt 0.933594 0.068359
vt 0.615234 0.003906
vt 0.630859 0.068359
vt 0.388672 0.003906
vt 0.378906 0.068359
vt 0.117188 0.869141
vt 0.117188 0.908203
vt 0.003906 0.494141
vt 0.003906 0.537109
vt 0.691406 0.132812
vt 0.679688 0.076172
vt 0.011719 0.398438
vt 0.003906 0.345703
vt 0.531250 0.398438
vt 0.548828 0.345703
vt 0.687500 0.140625
vt 0.320312 0.140625
vt 0.669922 0.193359
vt 0.328125 0.193359
vt 0.138672 0.798828
vt 0.259766 0.818359
vt 0.259766 0.662109
vt 0.138672 0.681641
vt 0.363281 0.662109
vt 0.363281 0.818359
vt 0.515625 0.988281
vt 0.515625 0.921875
vt 0.277344 0.912109
vt 0.277344 0.998047
vn -0.707107 0.707107 0.000000
vn -0.807682 0.588890 -0.029302
vn 0.588890 -0.807682 -0.029302
vn 0.707107 -0.707107 0.000000
vn 0.000000 0.000000 1.000000
vn -0.986394 0.000000 0.164399
vn 0.948683 0.000000 0.316228
vn -0.121942 -0.975537 0.182913
vn -0.872872 -0.436436 0.218218
vn 0.639602 0.639602 0.426401
vn 0.000000 -0.986394 0.164399
vn -0.121942 0.975537 0.182913
vn -0.117867 0.972401 0.201356
vn -0.000000 0.986394 0.164399
vn -0.173622 -0.173622 0.969387
vn 0.467121 0.467121 0.750730
vn -0.630510 -0.630510 -0.452674
g foo
usemtl models/map_xoylent/clamps
s off
f 4/1/1 6/2/1 5/3/1
f 2/4/2 6/2/2 4/1/2
f 1/4/3 3/1/3 7/2/3
f 3/1/4 8/3/4 7/2/4
f 19/5/5 23/6/5 25/7/5
f 11/8/5 15/9/5 19/5/5
f 11/8/5 19/5/5 25/7/5
f 18/10/6 22/11/6 21/12/6
f 18/10/6 21/12/6 20/13/6
f 23/14/7 24/15/7 25/16/7
f 24/15/7 26/17/7 25/16/7
f 12/18/6 10/19/6 14/20/6
f 12/18/6 14/20/6 13/21/6
f 13/21/8 14/20/8 16/22/8
f 13/21/8 16/22/8 15/23/8
f 15/23/9 16/22/9 17/24/9
f 15/23/9 17/24/9 19/25/9
f 19/5/5 20/26/5 21/27/5
f 19/5/5 21/27/5 23/6/5
f 11/8/5 12/28/5 15/9/5
f 12/28/5 13/29/5 15/9/5
f 11/30/10 25/16/10 9/31/10
f 25/16/10 26/17/10 9/31/10
f 21/32/11 22/33/11 23/34/11
f 22/33/11 24/35/11 23/34/11
f 17/24/12 18/10/12 20/13/12
f 17/24/13 20/13/13 19/25/13
f 9/36/14 10/37/14 11/38/14
f 10/37/14 12/39/14 11/38/14
f 1/40/15 7/41/15 6/42/15
f 1/40/15 6/42/15 2/43/15
f 5/44/16 6/42/16 7/41/16
f 5/44/16 7/41/16 8/45/16
f 1/46/17 2/47/17 4/48/17
f 1/46/17 4/48/17 3/49/17
