# Blender3D v249 OBJ File: clamps.blend
# www.blender3d.org
v -1.250000 1.625000 0.000000
v -1.250000 -0.375000 0.000000
v -3.000000 0.500000 -0.250000
v -3.000000 1.500000 -0.250000
v -1.250000 -0.500000 -0.250000
v -1.250000 1.750000 -0.250000
v -1.250000 2.250000 -0.250000
v -1.250000 -2.125000 -0.250000
v -4.750000 1.375000 -0.250000
v -4.750000 2.250000 -0.250000
v -1.250000 -2.375000 -0.625000
v -4.875000 1.250000 -0.500000
v -1.250000 2.375000 -0.625000
v -4.875000 2.375000 -0.500000
v 2.125000 -2.625000 -0.750000
v -1.500000 -2.625000 -0.750000
v 2.000000 -2.500000 0.000000
v -1.250000 -2.500000 0.000000
v -1.250000 2.500000 0.000000
v -1.500000 2.625000 -0.750000
v 2.000000 2.000000 0.000000
v 2.000000 2.500000 0.000000
v 0.000000 1.500000 0.000000
v 0.000000 -1.500000 0.000000
v 2.000000 -2.000000 0.000000
v 2.125000 2.625000 -0.750000
v 0.125000 -1.375000 -0.750000
v 2.125000 -1.875000 -0.750000
v 0.125000 1.375000 -0.750000
v 2.125000 1.875000 -0.750000
vt 0.650391 0.654297
vt 0.724609 0.804688
vt 0.626953 0.664062
vt 0.820312 0.654297
vt 0.841797 0.658203
vt 0.808594 0.804688
vt 0.291016 0.201172
vt 0.691406 0.201172
vt 0.701172 0.265625
vt 0.281250 0.265625
vt 0.003906 0.996094
vt 0.003906 0.578125
vt 0.109375 0.660156
vt 0.109375 0.910156
vt 0.273438 0.953125
vt 0.273438 0.996094
vt 0.273438 0.578125
vt 0.273438 0.621094
vt 0.925781 0.082031
vt 0.960938 0.132812
vt 0.230469 0.339844
vt 0.064453 0.339844
vt 0.242188 0.273438
vt 0.076172 0.273438
vt 0.478516 0.273438
vt 0.490234 0.339844
vt 0.646484 0.273438
vt 0.658203 0.339844
vt 0.021484 0.339844
vt 0.009766 0.273438
vt 0.712891 0.273438
vt 0.701172 0.339844
vt 0.021484 0.132812
vt 0.056641 0.082031
vt 0.677734 0.462891
vt 0.677734 0.542969
vt 0.662109 0.558594
vt 0.662109 0.451172
vt 0.994141 0.542969
vt 0.994141 0.558594
vt 0.994141 0.148438
vt 0.994141 0.121094
vn -0.455104 -0.796432 0.398216
vn -0.126745 0.887214 0.443607
vn -0.948683 0.000000 0.316228
vn 0.000000 -0.000000 1.000000
vn 0.000000 0.986394 0.164399
vn 0.237729 0.950915 0.198107
vn 0.986394 -0.000000 0.164399
vn 0.237729 -0.950915 0.198107
vn 0.000000 -0.986394 0.164399
vn -0.894427 0.000000 0.447214
vn 0.000000 0.948683 0.316228
vn 0.015209 0.897345 0.441068
vn -0.577350 -0.577350 0.577351
vn -0.630790 -0.645632 0.430422
vn -0.141421 0.000000 0.989949
g foo
usemtl models/map_xoylent/clamps
s off
f 2/1/1 3/2/1 5/3/1
f 1/4/2 6/5/2 4/6/2
f 18/7/3 19/8/3 20/9/3
f 18/7/3 20/9/3 16/10/3
f 19/11/4 18/12/4 24/13/4
f 19/11/4 24/13/4 23/14/4
f 23/14/4 21/15/4 22/16/4
f 23/14/4 22/16/4 19/11/4
f 24/13/4 18/12/4 17/17/4
f 24/13/4 17/17/4 25/18/4
f 19/8/5 22/19/5 26/20/5
f 19/8/5 26/20/5 20/9/5
f 24/21/6 25/22/6 27/23/6
f 25/22/6 28/24/6 27/23/6
f 29/25/7 23/26/7 24/21/7
f 29/25/7 24/21/7 27/23/7
f 30/27/8 21/28/8 29/25/8
f 21/28/8 23/26/8 29/25/8
f 17/29/7 15/30/7 28/24/7
f 17/29/7 28/24/7 25/22/7
f 26/31/7 22/32/7 21/28/7
f 26/31/7 21/28/7 30/27/7
f 15/33/9 17/34/9 18/7/9
f 15/33/9 18/7/9 16/10/9
f 9/35/10 10/36/10 14/37/10
f 9/35/10 14/37/10 12/38/10
f 10/36/11 7/39/11 13/40/11
f 10/36/12 13/40/12 14/37/12
f 8/41/13 9/35/13 12/38/13
f 8/41/14 12/38/14 11/42/14
f 7/39/4 10/36/4 9/35/4
f 7/39/4 9/35/4 8/41/4
f 1/4/15 4/6/15 3/2/15
f 1/4/15 3/2/15 2/1/15
