# Blender3D v249 OBJ File: clamps.blend
# www.blender3d.org
v 2.125000 -2.625000 -0.750000
v -1.500000 -2.625000 -0.750000
v 2.000000 -2.500000 0.000000
v -1.250000 -2.500000 0.000000
v -1.250000 2.500000 0.000000
v -1.500000 2.625000 -0.750000
v 2.000000 2.000000 0.000000
v 2.000000 2.500000 0.000000
v 0.000000 1.500000 0.000000
v 0.000000 -1.500000 0.000000
v 2.000000 -2.000000 0.000000
v 2.125000 2.625000 -0.750000
v 0.125000 -1.375000 -0.750000
v 2.125000 -1.875000 -0.750000
v 0.125000 1.375000 -0.750000
v 2.125000 1.875000 -0.750000
vt 0.291016 0.201172
vt 0.691406 0.201172
vt 0.701172 0.265625
vt 0.281250 0.265625
vt 0.003906 0.996094
vt 0.003906 0.578125
vt 0.109375 0.660156
vt 0.109375 0.910156
vt 0.273438 0.953125
vt 0.273438 0.996094
vt 0.273438 0.578125
vt 0.273438 0.621094
vt 0.925781 0.082031
vt 0.960938 0.132812
vt 0.230469 0.339844
vt 0.064453 0.339844
vt 0.242188 0.273438
vt 0.076172 0.273438
vt 0.478516 0.273438
vt 0.490234 0.339844
vt 0.646484 0.273438
vt 0.658203 0.339844
vt 0.021484 0.339844
vt 0.009766 0.273438
vt 0.712891 0.273438
vt 0.701172 0.339844
vt 0.021484 0.132812
vt 0.056641 0.082031
vn -0.948683 0.000000 0.316228
vn 0.000000 -0.000000 1.000000
vn 0.000000 0.986394 0.164399
vn 0.237729 0.950915 0.198107
vn 0.986394 -0.000000 0.164399
vn 0.237729 -0.950915 0.198107
vn 0.000000 -0.986394 0.164399
g foo
usemtl models/map_xoylent/clamps
s off
f 4/1/1 5/2/1 6/3/1
f 4/1/1 6/3/1 2/4/1
f 5/5/2 4/6/2 10/7/2
f 5/5/2 10/7/2 9/8/2
f 9/8/2 7/9/2 8/10/2
f 9/8/2 8/10/2 5/5/2
f 10/7/2 4/6/2 3/11/2
f 10/7/2 3/11/2 11/12/2
f 5/2/3 8/13/3 12/14/3
f 5/2/3 12/14/3 6/3/3
f 10/15/4 11/16/4 13/17/4
f 11/16/4 14/18/4 13/17/4
f 15/19/5 9/20/5 10/15/5
f 15/19/5 10/15/5 13/17/5
f 16/21/6 7/22/6 15/19/6
f 7/22/6 9/20/6 15/19/6
f 3/23/5 1/24/5 14/18/5
f 3/23/5 14/18/5 11/16/5
f 12/25/5 8/26/5 7/22/5
f 12/25/5 7/22/5 16/21/5
f 1/27/7 3/28/7 4/1/7
f 1/27/7 4/1/7 2/4/7
