# Blender3D v249 OBJ File: lamps.blend
# www.blender3d.org
v 8.000000 -2.077350 0.333333
v 8.000000 -2.077350 -0.333333
v 8.000000 -1.500000 -0.666667
v 8.000000 -0.922650 -0.333333
v 8.000000 -0.922650 0.333334
v 8.000000 -1.500000 0.666667
v -8.000000 -2.077350 0.333333
v -8.000000 -2.077350 -0.333333
v -8.000000 -1.500000 -0.666667
v -8.000000 -0.922650 -0.333333
v -8.000000 -0.922650 0.333334
v -8.000000 -1.500000 0.666667
vt 0.000000 0.500000
vt 0.000000 0.328125
vt 1.000000 0.328125
vt 1.000000 0.500000
vt 0.000000 0.171875
vt 1.000000 0.171875
vt 0.000000 0.000000
vt 1.000000 0.000000
vt 0.000000 1.000000
vt 0.000000 0.828125
vt 1.000000 0.828125
vt 1.000000 1.000000
vt 0.000000 0.671875
vt 1.000000 0.671875
vn 0.000000 -0.500000 0.866025
vn -0.000000 0.500000 0.866026
vn -0.000000 1.000000 0.000000
vn 0.000000 0.500000 -0.866025
vn 0.000000 -0.500000 -0.866025
vn 0.000000 -1.000000 0.000000
g foo
usemtl models/map_xoylent/lamp_small_light
s off
f 1/1/1 6/2/1 12/3/1
f 1/1/1 12/3/1 7/4/1
f 5/5/2 11/6/2 12/3/2
f 5/5/2 12/3/2 6/2/2
f 4/7/3 10/8/3 11/6/3
f 4/7/3 11/6/3 5/5/3
f 4/9/4 3/10/4 9/11/4
f 4/9/4 9/11/4 10/12/4
f 2/13/5 8/14/5 3/10/5
f 8/14/5 9/11/5 3/10/5
f 2/13/6 1/1/6 7/4/6
f 2/13/6 7/4/6 8/14/6
v 8.750000 -0.000000 -1.000000
v -8.750000 0.000000 -1.000000
v 8.750000 -0.000001 1.000000
v -8.750000 0.000000 1.000000
v -8.000000 -0.500000 -1.000000
v -8.000000 -1.875000 -1.000000
v -8.750000 -1.875000 -1.000000
v -8.000000 -0.500000 1.000000
v -8.000000 -2.375000 -0.500000
v -8.750000 -2.375000 -0.500000
v -8.750000 -2.375000 0.500000
v -8.000000 -2.375000 0.500000
v -8.000000 -1.875000 1.000000
v -8.750000 -1.875000 1.000000
v 8.750000 -1.875000 1.000000
v 8.000000 -1.875000 1.000000
v 8.000000 -2.375000 0.500000
v 8.750000 -2.375000 0.500000
v 8.750000 -2.375000 -0.500000
v 8.000000 -2.375000 -0.500000
v 8.000000 -0.500000 1.000000
v 8.750000 -1.875000 -1.000000
v 8.000000 -1.875000 -1.000000
v 8.000000 -0.500000 -1.000000
vt 0.996094 0.984375
vt 0.953125 0.859375
vt 0.046875 0.859375
vt 0.003906 0.984375
vt 0.003906 0.359375
vt 0.832031 0.359375
vt 0.832031 0.781250
vt 0.003906 0.781250
vt 0.396484 0.031250
vt 0.333984 0.031250
vt 0.396484 0.296875
vt 0.333984 0.296875
vt 0.244141 0.031250
vt 0.244141 0.296875
vt 0.181641 0.031250
vt 0.181641 0.296875
vt 0.837891 0.640625
vt 0.880859 0.796875
vt 0.958984 0.796875
vt 0.994141 0.640625
vt 0.839844 0.187500
vt 0.996094 0.187500
vt 0.839844 0.015625
vt 0.996094 0.015625
vt 0.007812 0.031250
vt 0.054688 0.296875
vt 0.570312 0.031250
vt 0.523438 0.296875
vt 0.841797 0.640625
vt 0.998047 0.640625
vt 0.876953 0.796875
vt 0.955078 0.796875
vn 0.000000 0.000000 -1.000000
vn -0.000000 -0.000000 1.000000
vn 0.000000 -0.707107 -0.707107
vn 0.000000 -0.707107 0.707107
vn -1.000000 0.000000 0.000000
vn 1.000000 -0.000000 0.000000
usemtl models/map_xoylent/lamp_small
s off
f 13/15/7 36/16/7 17/17/7
f 13/15/7 17/17/7 14/18/7
f 17/19/6 36/20/6 33/21/6
f 17/19/6 33/21/6 20/22/6
f 15/15/8 16/18/8 20/17/8
f 15/15/8 20/17/8 33/16/8
f 34/23/9 31/24/9 35/25/9
f 31/24/9 32/26/9 35/25/9
f 31/24/6 30/27/6 29/28/6
f 31/24/6 29/28/6 32/26/6
f 30/27/10 27/29/10 28/30/10
f 30/27/10 28/30/10 29/28/10
f 35/31/11 32/32/11 29/33/11
f 35/31/11 29/33/11 28/34/11
f 36/35/11 35/31/11 33/36/11
f 35/31/11 28/34/11 33/36/11
f 34/31/12 27/34/12 30/33/12
f 34/31/12 30/33/12 31/32/12
f 13/37/12 15/38/12 34/31/12
f 15/38/12 27/34/12 34/31/12
f 15/39/8 33/40/8 27/29/8
f 33/40/8 28/30/8 27/29/8
f 13/41/7 34/23/7 36/42/7
f 34/23/7 35/25/7 36/42/7
f 14/41/7 17/42/7 19/23/7
f 17/42/7 18/25/7 19/23/7
f 16/39/8 26/29/8 20/40/8
f 26/29/8 25/30/8 20/40/8
f 14/37/11 19/43/11 16/38/11
f 19/43/11 26/44/11 16/38/11
f 19/43/11 22/45/11 23/46/11
f 19/43/11 23/46/11 26/44/11
f 17/35/12 20/36/12 18/43/12
f 20/36/12 25/44/12 18/43/12
f 18/43/12 25/44/12 24/46/12
f 18/43/12 24/46/12 21/45/12
f 23/27/10 24/28/10 25/30/10
f 23/27/10 25/30/10 26/29/10
f 22/24/6 21/26/6 24/28/6
f 22/24/6 24/28/6 23/27/6
f 19/23/9 18/25/9 22/24/9
f 18/25/9 21/26/9 22/24/9
