# Blender3D v249 OBJ File: spine.blend
# www.blender3d.org
v -3.540737 32.565685 -17.434309
v -3.540737 32.772739 -18.207050
v -3.540737 32.207054 -18.772738
v -3.540737 31.434313 -18.565681
v -3.540737 31.227257 -17.792938
v -3.540737 31.792942 -17.227253
v 3.540825 32.565685 -17.434309
v 3.540825 32.772739 -18.207050
v 3.540825 32.207054 -18.772738
v 3.540825 31.434313 -18.565681
v 3.540825 31.227257 -17.792938
v 3.540825 31.792942 -17.227253
v 3.426027 3.292940 -45.727257
v 3.426027 2.727257 -46.292942
v 3.426027 2.934313 -47.065685
v 3.426027 3.707054 -47.272743
v 3.426027 4.272737 -46.707054
v 3.426027 4.065685 -45.934311
v -3.425951 3.292940 -45.727257
v -3.425951 2.727257 -46.292942
v -3.425951 2.934313 -47.065685
v -3.425951 3.707054 -47.272743
v -3.425951 4.272737 -46.707054
v -3.425951 4.065685 -45.934311
v 10.999998 9.312695 -1.401376
v 10.999998 8.580461 0.366390
v 10.999998 6.812695 1.098623
v 10.999998 5.044930 0.366390
v 10.999998 4.312695 -1.401377
v 10.999998 5.044930 -3.169144
v 10.999998 6.812695 -3.901377
v 10.999998 8.580461 -3.169144
v -10.999999 9.312692 -1.401376
v -11.000000 8.580458 0.366390
v -11.000000 6.812692 1.098624
v -11.000000 5.044926 0.366390
v -11.000000 4.312691 -1.401376
v -10.999999 5.044926 -3.169144
v -10.999999 6.812692 -3.901377
v -10.999999 8.580458 -3.169144
v 11.000000 24.410992 -3.802454
v 11.000000 23.678759 -2.034687
v 11.000000 21.910992 -1.302454
v 11.000000 20.143225 -2.034687
v 11.000000 19.410992 -3.802454
v 11.000000 20.143225 -5.570221
v 11.000000 21.910992 -6.302454
v 11.000000 23.678759 -5.570221
v -11.000000 24.410992 -3.802454
v -11.000000 23.678759 -2.034687
v -11.000000 21.910992 -1.302454
v -11.000000 20.143225 -2.034687
v -11.000000 19.410992 -3.802454
v -11.000000 20.143225 -5.570221
v -11.000000 21.910992 -6.302454
v -11.000000 23.678759 -5.570221
v 11.000000 38.166321 -9.906889
v 10.999998 37.434086 -8.139122
v 10.999998 35.666321 -7.406889
v 10.999998 33.898552 -8.139122
v 10.999998 33.166321 -9.906889
v 11.000000 33.898552 -11.674657
v 11.000000 35.666321 -12.406889
v 11.000000 37.434086 -11.674657
v -11.000000 38.166317 -9.906888
v -11.000000 37.434082 -8.139122
v -11.000000 35.666317 -7.406889
v -11.000000 33.898552 -8.139122
v -11.000000 33.166317 -9.906889
v -11.000000 33.898552 -11.674656
v -11.000000 35.666317 -12.406889
v -11.000000 37.434082 -11.674656
v 11.000000 48.625259 -20.406517
v 11.000000 47.893024 -18.638752
v 11.000000 46.125259 -17.906519
v 11.000000 44.357491 -18.638752
v 11.000000 43.625256 -20.406517
v 11.000000 44.357491 -22.174286
v 11.000000 46.125256 -22.906519
v 11.000000 47.893024 -22.174286
v -10.999999 48.625252 -20.406517
v -10.999999 47.893021 -18.638752
v -10.999999 46.125252 -17.906519
v -10.999999 44.357487 -18.638752
v -10.999999 43.625252 -20.406519
v -10.999999 44.357487 -22.174286
v -10.999999 46.125252 -22.906519
v -10.999999 47.893021 -22.174286
v 10.999996 54.688995 -34.161839
v 10.999996 53.956760 -32.394077
v 10.999996 52.188995 -31.661842
v 10.999996 50.421227 -32.394077
v 10.999996 49.688992 -34.161842
v 10.999996 50.421227 -35.929611
v 10.999996 52.188992 -36.661846
v 10.999996 53.956760 -35.929611
v -11.000000 54.688992 -34.161842
v -11.000000 53.956757 -32.394077
v -11.000000 52.188988 -31.661840
v -11.000000 50.421223 -32.394077
v -11.000000 49.688988 -34.161842
v -11.000000 50.421223 -35.929611
v -11.000000 52.188988 -36.661842
v -11.000000 53.956757 -35.929611
v 10.999996 57.049377 -49.219456
v 10.999996 56.317142 -47.451691
v 10.999996 54.549377 -46.719456
v 10.999996 52.781609 -47.451691
v 10.999996 52.049374 -49.219456
v 10.999996 52.781609 -50.987225
v 10.999996 54.549374 -51.719456
v 10.999996 56.317142 -50.987225
v -11.000000 57.049374 -49.219456
v -11.000000 56.317139 -47.451687
v -11.000000 54.549374 -46.719456
v -11.000000 52.781605 -47.451687
v -11.000000 52.049370 -49.219456
v -11.000000 52.781605 -50.987225
v -11.000000 54.549374 -51.719456
v -11.000000 56.317139 -50.987225
vt 0.236328 0.001953
vt 0.275391 0.001953
vt 0.275391 0.375977
vt 0.236328 0.375977
vt 0.197266 0.001953
vt 0.197266 0.375977
vt 0.158203 0.001953
vt 0.158203 0.375977
vt 0.119141 0.001953
vt 0.119141 0.375977
vt 0.080078 0.001953
vt 0.080078 0.375977
vt 0.041016 0.001953
vt 0.041016 0.375977
vt 0.001953 0.001953
vt 0.001953 0.375977
vt 0.314453 0.001953
vt 0.314453 0.375977
vt 0.218750 0.245117
vt 0.203125 0.245117
vt 0.203125 0.128906
vt 0.218750 0.128906
vt 0.233398 0.245117
vt 0.233398 0.128906
vt 0.249023 0.245117
vt 0.249023 0.128906
vt 0.173828 0.245117
vt 0.158203 0.245117
vt 0.158203 0.128906
vt 0.173828 0.128906
vt 0.188477 0.245117
vt 0.188477 0.128906
vn 0.000000 0.004425 -0.999969
vn 0.000000 0.707083 -0.707083
vn 0.000000 -0.004425 -0.999969
vn 0.000000 -0.703940 -0.710227
vn 0.000000 -0.710227 -0.703940
vn 0.000000 -0.999969 -0.004425
vn 0.000000 -0.999969 0.004425
vn 0.000000 -0.710227 0.703940
vn 0.000000 -0.703940 0.710227
vn 0.000000 -0.004425 0.999969
vn 0.000000 0.004425 0.999969
vn 0.000000 0.703940 0.710227
vn 0.000000 0.710227 0.703940
vn 0.000000 1.000000 0.000000
vn 0.000000 0.707205 0.706961
vn 0.000000 0.999969 -0.004273
vn 0.000000 -0.707205 -0.706961
vn 0.000000 -1.000000 -0.000153
vn 0.000000 -0.707083 -0.707083
vn 0.000000 -1.000000 0.000000
vn 0.000000 0.967101 -0.254280
vn 0.000000 0.703757 0.710410
vn 0.000000 0.710410 0.703757
vn 0.000000 0.964690 -0.263344
vn 0.000000 0.263344 -0.964690
vn 0.000000 0.254280 -0.967101
vn 0.000000 -0.703757 -0.710410
vn 0.000000 -0.710410 -0.703757
vn 0.000000 -0.967101 0.254280
vn 0.000000 -0.964690 0.263344
vn 0.000000 -0.263344 0.964690
vn 0.000000 -0.254280 0.967101
g foo
usemtl models/map_xoylent/spine
s 1
f 119/1/1 120/2/2 112/3/2
f 119/1/1 112/3/2 111/4/3
f 118/5/4 119/1/1 111/4/3
f 118/5/4 111/4/3 110/6/5
f 117/7/6 118/5/4 110/6/5
f 117/7/6 110/6/5 109/8/7
f 116/9/8 117/7/6 109/8/7
f 116/9/8 109/8/7 108/10/9
f 115/11/10 116/9/8 108/10/9
f 115/11/10 108/10/9 107/12/11
f 114/13/12 115/11/10 107/12/11
f 114/13/12 107/12/11 106/14/13
f 113/15/14 114/13/12 106/14/13
f 113/15/14 106/14/13 105/16/14
f 112/3/2 120/2/2 113/17/14
f 112/3/2 113/17/14 105/18/14
f 103/5/1 104/1/2 96/4/2
f 103/5/1 96/4/2 95/6/3
f 102/7/4 103/5/1 95/6/3
f 102/7/4 95/6/3 94/8/5
f 101/9/6 102/7/4 94/8/5
f 101/9/6 94/8/5 93/10/7
f 100/11/8 101/9/6 93/10/7
f 100/11/8 93/10/7 92/12/9
f 99/13/10 100/11/8 92/12/9
f 99/13/10 92/12/9 91/14/11
f 98/15/12 99/13/10 91/14/11
f 98/15/12 91/14/11 90/16/15
f 97/2/16 98/17/12 90/18/15
f 97/2/16 90/18/15 89/3/14
f 97/2/16 89/3/14 96/4/2
f 97/2/16 96/4/2 104/1/2
f 87/5/1 88/1/2 80/4/2
f 87/5/1 80/4/2 79/6/3
f 86/7/4 87/5/1 79/6/3
f 86/7/4 79/6/3 78/8/17
f 85/9/18 86/7/4 78/8/17
f 85/9/18 78/8/17 77/10/7
f 84/11/8 85/9/18 77/10/7
f 84/11/8 77/10/7 76/12/9
f 83/13/10 84/11/8 76/12/9
f 83/13/10 76/12/9 75/14/11
f 82/15/12 83/13/10 75/14/11
f 82/15/12 75/14/11 74/16/13
f 81/2/14 82/17/12 74/18/13
f 81/2/14 74/18/13 73/3/14
f 81/2/14 73/3/14 80/4/2
f 81/2/14 80/4/2 88/1/2
f 71/5/1 72/1/2 64/4/2
f 71/5/1 64/4/2 63/6/3
f 70/7/19 71/5/1 63/6/3
f 70/7/19 63/6/3 62/8/19
f 69/9/20 70/7/19 61/10/20
f 70/7/19 62/8/19 61/10/20
f 68/11/8 69/9/20 61/10/20
f 68/11/8 61/10/20 60/12/9
f 67/13/10 68/11/8 60/12/9
f 67/13/10 60/12/9 59/14/11
f 66/15/12 67/13/10 59/14/11
f 66/15/12 59/14/11 58/16/13
f 65/2/14 66/17/12 58/18/13
f 65/2/14 58/18/13 57/3/14
f 65/2/14 57/3/14 64/4/2
f 65/2/14 64/4/2 72/1/2
f 55/5/1 56/1/2 48/4/2
f 55/5/1 48/4/2 47/6/3
f 54/7/4 55/5/1 47/6/3
f 54/7/4 47/6/3 46/8/5
f 53/9/6 54/7/4 46/8/5
f 53/9/6 46/8/5 45/10/7
f 52/11/8 53/9/6 45/10/7
f 52/11/8 45/10/7 44/12/9
f 51/13/10 52/11/8 44/12/9
f 51/13/10 44/12/9 43/14/11
f 50/15/12 51/13/10 43/14/11
f 50/15/12 43/14/11 42/16/13
f 49/2/14 50/17/12 42/18/13
f 49/2/14 42/18/13 41/3/14
f 49/2/14 41/3/14 48/4/2
f 49/2/14 48/4/2 56/1/2
f 39/7/1 40/5/2 32/6/2
f 39/7/1 32/6/2 31/8/3
f 38/9/19 39/7/1 31/8/3
f 38/9/19 31/8/3 30/10/19
f 37/11/20 38/9/19 29/12/20
f 38/9/19 30/10/19 29/12/20
f 36/13/8 37/11/20 29/12/20
f 36/13/8 29/12/20 28/14/9
f 35/15/10 36/13/8 28/14/9
f 35/15/10 28/14/9 27/16/11
f 34/2/12 35/17/10 27/18/11
f 34/2/12 27/18/11 26/3/13
f 33/1/14 34/2/12 26/3/13
f 33/1/14 26/3/13 25/4/14
f 33/1/14 25/4/14 32/6/2
f 33/1/14 32/6/2 40/5/2
f 23/19/21 24/20/22 18/21/23
f 23/19/21 18/21/23 17/22/24
f 22/23/25 23/19/21 17/22/24
f 22/23/25 17/22/24 16/24/26
f 21/25/27 22/23/25 16/24/26
f 21/25/27 16/24/26 15/26/28
f 20/27/29 21/28/27 15/29/28
f 20/27/29 15/29/28 14/30/30
f 19/31/31 20/27/29 14/30/30
f 19/31/31 14/30/30 13/32/32
f 24/20/22 19/31/31 13/32/32
f 24/20/22 13/32/32 18/21/23
f 1/25/22 6/23/31 12/24/32
f 1/25/22 12/24/32 7/26/23
f 6/23/31 5/19/29 11/22/30
f 6/23/31 11/22/30 12/24/32
f 5/19/29 4/20/27 10/21/28
f 5/19/29 10/21/28 11/22/30
f 4/20/27 3/31/25 9/32/26
f 4/20/27 9/32/26 10/21/28
f 3/31/25 2/27/21 8/30/24
f 3/31/25 8/30/24 9/32/26
f 2/27/21 1/28/22 7/29/23
f 2/27/21 7/29/23 8/30/24
