<?xml version="1.0" encoding="UTF-8" standalone="no"?>
<!-- Created with Inkscape (http://www.inkscape.org/) -->

<svg
   xmlns:dc="http://purl.org/dc/elements/1.1/"
   xmlns:cc="http://creativecommons.org/ns#"
   xmlns:rdf="http://www.w3.org/1999/02/22-rdf-syntax-ns#"
   xmlns:svg="http://www.w3.org/2000/svg"
   xmlns="http://www.w3.org/2000/svg"
   xmlns:xlink="http://www.w3.org/1999/xlink"
   xmlns:sodipodi="http://sodipodi.sourceforge.net/DTD/sodipodi-0.dtd"
   xmlns:inkscape="http://www.inkscape.org/namespaces/inkscape"
   width="1024"
   height="1024"
   id="svg2"
   version="1.1"
   inkscape:version="0.48.3.1 r9886"
   sodipodi:docname="crative.svg"
   inkscape:export-filename="/home/rpolzer/Games/Xonotic/data/xonotic-maps.pk3dir/textures/map_augenkrebs/crative.png"
   inkscape:export-xdpi="90"
   inkscape:export-ydpi="90">
  <defs
     id="defs4" />
  <sodipodi:namedview
     id="base"
     pagecolor="#000000"
     bordercolor="#666666"
     borderopacity="1.0"
     inkscape:pageopacity="1"
     inkscape:pageshadow="2"
     inkscape:zoom="0.35"
     inkscape:cx="865.64562"
     inkscape:cy="459.90286"
     inkscape:document-units="px"
     inkscape:current-layer="layer1"
     showgrid="true"
     inkscape:window-width="801"
     inkscape:window-height="658"
     inkscape:window-x="751"
     inkscape:window-y="27"
     inkscape:window-maximized="0">
    <inkscape:grid
       type="xygrid"
       id="grid2985"
       empspacing="5"
       visible="true"
       enabled="true"
       snapvisiblegridlinesonly="true"
       spacingx="64px"
       spacingy="64px" />
  </sodipodi:namedview>
  <metadata
     id="metadata7">
    <rdf:RDF>
      <cc:Work
         rdf:about="">
        <dc:format>image/svg+xml</dc:format>
        <dc:type
           rdf:resource="http://purl.org/dc/dcmitype/StillImage" />
        <dc:title />
      </cc:Work>
    </rdf:RDF>
  </metadata>
  <g
     inkscape:label="Layer 1"
     inkscape:groupmode="layer"
     id="layer1"
     transform="translate(0,-28.362183)">
    <g
       id="g4629"
       style="fill:#1a1a1a;stroke:#ffffff;stroke-opacity:1">
      <g
         id="g3861"
         style="fill:#1a1a1a;stroke:#ffffff;stroke-opacity:1">
        <path
           sodipodi:nodetypes="sscsscs"
           inkscape:connector-curvature="0"
           id="path3781"
           d="m -8,14.362183 c -4,0 -8,4 -8,8 0,4 8,12 16,19.999997 8,-7.999997 16,-15.999997 16,-19.999997 0,-4 -4,-8 -8,-8 -4,0 -8,4 -8,8 0,-4 -4,-8 -8,-8 z"
           style="fill:#1a1a1a;fill-opacity:1;stroke:#ffffff;stroke-opacity:1" />
        <path
           sodipodi:nodetypes="sscsscs"
           inkscape:connector-curvature="0"
           id="path3781-0"
           d="m 77.999998,20.362181 c 0,-4 -4,-8 -8,-8 -4,0 -12,8 -19.999997,16 7.999997,8 15.999997,16 19.999997,16 4,0 8,-4 8,-8 0,-4 -4,-8 -8,-8 4,0 8,-4 8,-8 z"
           style="fill:#1a1a1a;fill-opacity:1;stroke:#ffffff;stroke-opacity:1" />
        <path
           sodipodi:nodetypes="sscsscs"
           inkscape:connector-curvature="0"
           id="path3781-2"
           d="m 69.999998,106.36218 c 4,0 8,-4 8,-8.000002 0,-4 -8,-12 -16,-19.999995 -8,7.999995 -16,15.999995 -16,19.999995 0,4.000002 4,8.000002 8,8.000002 4,0 8,-4 8,-8.000002 0,4.000002 4,8.000002 8,8.000002 z"
           style="fill:#1a1a1a;fill-opacity:1;stroke:#ffffff;stroke-opacity:1" />
        <path
           sodipodi:nodetypes="sscsscs"
           inkscape:connector-curvature="0"
           id="path3781-0-3"
           d="m -16,100.36218 c 0,4 4,8 8,8 4,0 12,-8 19.999997,-16 C 4,84.362183 -4,76.362183 -8,76.362183 c -4,0 -8,4 -8,8 0,3.999997 4,7.999997 8,7.999997 -4,0 -8,4 -8,8 z"
           style="fill:#1a1a1a;fill-opacity:1;stroke:#ffffff;stroke-opacity:1" />
      </g>
      <use
         transform="translate(128,2e-6)"
         height="1"
         width="1"
         id="use3882"
         xlink:href="#g3861"
         y="0"
         x="0"
         style="fill:#1a1a1a;stroke:#ffffff;stroke-opacity:1" />
      <use
         transform="translate(256,2e-6)"
         height="1"
         width="1"
         id="use3882-7"
         xlink:href="#g3861"
         y="0"
         x="0"
         style="fill:#1a1a1a;stroke:#ffffff;stroke-opacity:1" />
      <use
         transform="translate(384,2e-6)"
         height="1"
         width="1"
         id="use3882-5"
         xlink:href="#g3861"
         y="0"
         x="0"
         style="fill:#1a1a1a;stroke:#ffffff;stroke-opacity:1" />
      <use
         transform="translate(512,2e-6)"
         height="1"
         width="1"
         id="use3882-9"
         xlink:href="#g3861"
         y="0"
         x="0"
         style="fill:#1a1a1a;stroke:#ffffff;stroke-opacity:1" />
      <use
         transform="translate(640,2e-6)"
         height="1"
         width="1"
         id="use3882-2"
         xlink:href="#g3861"
         y="0"
         x="0"
         style="fill:#1a1a1a;stroke:#ffffff;stroke-opacity:1" />
      <use
         transform="translate(768,2e-6)"
         height="1"
         width="1"
         id="use3882-28"
         xlink:href="#g3861"
         y="0"
         x="0"
         style="fill:#1a1a1a;stroke:#ffffff;stroke-opacity:1" />
      <use
         transform="translate(896,2e-6)"
         height="1"
         width="1"
         id="use3882-97"
         xlink:href="#g3861"
         y="0"
         x="0"
         style="fill:#1a1a1a;stroke:#ffffff;stroke-opacity:1" />
      <use
         transform="translate(1024,2e-6)"
         height="1"
         width="1"
         id="use3882-3"
         xlink:href="#g3861"
         y="0"
         x="0"
         style="fill:#1a1a1a;stroke:#ffffff;stroke-opacity:1" />
      <use
         transform="translate(0,128)"
         height="1"
         width="1"
         id="use3882-6"
         xlink:href="#g3861"
         y="0"
         x="0"
         style="fill:#1a1a1a;stroke:#ffffff;stroke-opacity:1" />
      <use
         transform="translate(128,128)"
         height="1"
         width="1"
         id="use3882-1"
         xlink:href="#g3861"
         y="0"
         x="0"
         style="fill:#1a1a1a;stroke:#ffffff;stroke-opacity:1" />
      <use
         transform="translate(256,128)"
         height="1"
         width="1"
         id="use3882-29"
         xlink:href="#g3861"
         y="0"
         x="0"
         style="fill:#1a1a1a;stroke:#ffffff;stroke-opacity:1" />
      <use
         transform="translate(384,128)"
         height="1"
         width="1"
         id="use3882-31"
         xlink:href="#g3861"
         y="0"
         x="0"
         style="fill:#1a1a1a;stroke:#ffffff;stroke-opacity:1" />
      <use
         transform="translate(512,128)"
         height="1"
         width="1"
         id="use3882-94"
         xlink:href="#g3861"
         y="0"
         x="0"
         style="fill:#1a1a1a;stroke:#ffffff;stroke-opacity:1" />
      <use
         transform="translate(640,128)"
         height="1"
         width="1"
         id="use3882-78"
         xlink:href="#g3861"
         y="0"
         x="0"
         style="fill:#1a1a1a;stroke:#ffffff;stroke-opacity:1" />
      <use
         transform="translate(768,128)"
         height="1"
         width="1"
         id="use3882-4"
         xlink:href="#g3861"
         y="0"
         x="0"
         style="fill:#1a1a1a;stroke:#ffffff;stroke-opacity:1" />
      <use
         transform="translate(896,128)"
         height="1"
         width="1"
         id="use3882-50"
         xlink:href="#g3861"
         y="0"
         x="0"
         style="fill:#1a1a1a;stroke:#ffffff;stroke-opacity:1" />
      <use
         transform="translate(1024,128)"
         height="1"
         width="1"
         id="use3882-36"
         xlink:href="#g3861"
         y="0"
         x="0"
         style="fill:#1a1a1a;stroke:#ffffff;stroke-opacity:1" />
      <use
         transform="translate(0,256)"
         height="1"
         width="1"
         id="use3882-6-1"
         xlink:href="#g3861"
         y="0"
         x="0"
         style="fill:#1a1a1a;stroke:#ffffff;stroke-opacity:1" />
      <use
         transform="translate(128,256)"
         height="1"
         width="1"
         id="use3882-1-0"
         xlink:href="#g3861"
         y="0"
         x="0"
         style="fill:#1a1a1a;stroke:#ffffff;stroke-opacity:1" />
      <use
         transform="translate(256,256)"
         height="1"
         width="1"
         id="use3882-29-6"
         xlink:href="#g3861"
         y="0"
         x="0"
         style="fill:#1a1a1a;stroke:#ffffff;stroke-opacity:1" />
      <use
         transform="translate(384,256)"
         height="1"
         width="1"
         id="use3882-31-3"
         xlink:href="#g3861"
         y="0"
         x="0"
         style="fill:#1a1a1a;stroke:#ffffff;stroke-opacity:1" />
      <use
         transform="translate(512,256)"
         height="1"
         width="1"
         id="use3882-94-2"
         xlink:href="#g3861"
         y="0"
         x="0"
         style="fill:#1a1a1a;stroke:#ffffff;stroke-opacity:1" />
      <use
         transform="translate(640,256)"
         height="1"
         width="1"
         id="use3882-78-0"
         xlink:href="#g3861"
         y="0"
         x="0"
         style="fill:#1a1a1a;stroke:#ffffff;stroke-opacity:1" />
      <use
         transform="translate(768,256)"
         height="1"
         width="1"
         id="use3882-4-6"
         xlink:href="#g3861"
         y="0"
         x="0"
         style="fill:#1a1a1a;stroke:#ffffff;stroke-opacity:1" />
      <use
         transform="translate(896,256)"
         height="1"
         width="1"
         id="use3882-50-1"
         xlink:href="#g3861"
         y="0"
         x="0"
         style="fill:#1a1a1a;stroke:#ffffff;stroke-opacity:1" />
      <use
         transform="translate(1024,256)"
         height="1"
         width="1"
         id="use3882-36-5"
         xlink:href="#g3861"
         y="0"
         x="0"
         style="fill:#1a1a1a;stroke:#ffffff;stroke-opacity:1" />
      <use
         transform="translate(0,384)"
         height="1"
         width="1"
         id="use3882-6-5"
         xlink:href="#g3861"
         y="0"
         x="0"
         style="fill:#1a1a1a;stroke:#ffffff;stroke-opacity:1" />
      <use
         transform="translate(128,384)"
         height="1"
         width="1"
         id="use3882-1-4"
         xlink:href="#g3861"
         y="0"
         x="0"
         style="fill:#1a1a1a;stroke:#ffffff;stroke-opacity:1" />
      <use
         transform="translate(256,384)"
         height="1"
         width="1"
         id="use3882-29-7"
         xlink:href="#g3861"
         y="0"
         x="0"
         style="fill:#1a1a1a;stroke:#ffffff;stroke-opacity:1" />
      <use
         transform="translate(384,384)"
         height="1"
         width="1"
         id="use3882-31-6"
         xlink:href="#g3861"
         y="0"
         x="0"
         style="fill:#1a1a1a;stroke:#ffffff;stroke-opacity:1" />
      <use
         transform="translate(512,384)"
         height="1"
         width="1"
         id="use3882-94-5"
         xlink:href="#g3861"
         y="0"
         x="0"
         style="fill:#1a1a1a;stroke:#ffffff;stroke-opacity:1" />
      <use
         transform="translate(640,384)"
         height="1"
         width="1"
         id="use3882-78-6"
         xlink:href="#g3861"
         y="0"
         x="0"
         style="fill:#1a1a1a;stroke:#ffffff;stroke-opacity:1" />
      <use
         transform="translate(768,384)"
         height="1"
         width="1"
         id="use3882-4-9"
         xlink:href="#g3861"
         y="0"
         x="0"
         style="fill:#1a1a1a;stroke:#ffffff;stroke-opacity:1" />
      <use
         transform="translate(896,384)"
         height="1"
         width="1"
         id="use3882-50-3"
         xlink:href="#g3861"
         y="0"
         x="0"
         style="fill:#1a1a1a;stroke:#ffffff;stroke-opacity:1" />
      <use
         transform="translate(1024,384)"
         height="1"
         width="1"
         id="use3882-36-7"
         xlink:href="#g3861"
         y="0"
         x="0"
         style="fill:#1a1a1a;stroke:#ffffff;stroke-opacity:1" />
      <use
         transform="translate(0,512)"
         height="1"
         width="1"
         id="use3882-6-4"
         xlink:href="#g3861"
         y="0"
         x="0"
         style="fill:#1a1a1a;stroke:#ffffff;stroke-opacity:1" />
      <use
         transform="translate(128,512)"
         height="1"
         width="1"
         id="use3882-1-5"
         xlink:href="#g3861"
         y="0"
         x="0"
         style="fill:#1a1a1a;stroke:#ffffff;stroke-opacity:1" />
      <use
         transform="translate(256,512)"
         height="1"
         width="1"
         id="use3882-29-2"
         xlink:href="#g3861"
         y="0"
         x="0"
         style="fill:#1a1a1a;stroke:#ffffff;stroke-opacity:1" />
      <use
         transform="translate(384,512)"
         height="1"
         width="1"
         id="use3882-31-5"
         xlink:href="#g3861"
         y="0"
         x="0"
         style="fill:#1a1a1a;stroke:#ffffff;stroke-opacity:1" />
      <use
         transform="translate(512,512)"
         height="1"
         width="1"
         id="use3882-94-4"
         xlink:href="#g3861"
         y="0"
         x="0"
         style="fill:#1a1a1a;stroke:#ffffff;stroke-opacity:1" />
      <use
         transform="translate(640,512)"
         height="1"
         width="1"
         id="use3882-78-7"
         xlink:href="#g3861"
         y="0"
         x="0"
         style="fill:#1a1a1a;stroke:#ffffff;stroke-opacity:1" />
      <use
         transform="translate(768,512)"
         height="1"
         width="1"
         id="use3882-4-4"
         xlink:href="#g3861"
         y="0"
         x="0"
         style="fill:#1a1a1a;stroke:#ffffff;stroke-opacity:1" />
      <use
         transform="translate(896,512)"
         height="1"
         width="1"
         id="use3882-50-4"
         xlink:href="#g3861"
         y="0"
         x="0"
         style="fill:#1a1a1a;stroke:#ffffff;stroke-opacity:1" />
      <use
         transform="translate(1024,512)"
         height="1"
         width="1"
         id="use3882-36-3"
         xlink:href="#g3861"
         y="0"
         x="0"
         style="fill:#1a1a1a;stroke:#ffffff;stroke-opacity:1" />
      <use
         transform="translate(0,640)"
         height="1"
         width="1"
         id="use3882-6-0"
         xlink:href="#g3861"
         y="0"
         x="0"
         style="fill:#1a1a1a;stroke:#ffffff;stroke-opacity:1" />
      <use
         transform="translate(128,640)"
         height="1"
         width="1"
         id="use3882-1-7"
         xlink:href="#g3861"
         y="0"
         x="0"
         style="fill:#1a1a1a;stroke:#ffffff;stroke-opacity:1" />
      <use
         transform="translate(256,640)"
         height="1"
         width="1"
         id="use3882-29-8"
         xlink:href="#g3861"
         y="0"
         x="0"
         style="fill:#1a1a1a;stroke:#ffffff;stroke-opacity:1" />
      <use
         transform="translate(384,640)"
         height="1"
         width="1"
         id="use3882-31-68"
         xlink:href="#g3861"
         y="0"
         x="0"
         style="fill:#1a1a1a;stroke:#ffffff;stroke-opacity:1" />
      <use
         transform="translate(512,640)"
         height="1"
         width="1"
         id="use3882-94-8"
         xlink:href="#g3861"
         y="0"
         x="0"
         style="fill:#1a1a1a;stroke:#ffffff;stroke-opacity:1" />
      <use
         transform="translate(640,640)"
         height="1"
         width="1"
         id="use3882-78-4"
         xlink:href="#g3861"
         y="0"
         x="0"
         style="fill:#1a1a1a;stroke:#ffffff;stroke-opacity:1" />
      <use
         transform="translate(768,640)"
         height="1"
         width="1"
         id="use3882-4-3"
         xlink:href="#g3861"
         y="0"
         x="0"
         style="fill:#1a1a1a;stroke:#ffffff;stroke-opacity:1" />
      <use
         transform="translate(896,640)"
         height="1"
         width="1"
         id="use3882-50-14"
         xlink:href="#g3861"
         y="0"
         x="0"
         style="fill:#1a1a1a;stroke:#ffffff;stroke-opacity:1" />
      <use
         transform="translate(1024,640)"
         height="1"
         width="1"
         id="use3882-36-9"
         xlink:href="#g3861"
         y="0"
         x="0"
         style="fill:#1a1a1a;stroke:#ffffff;stroke-opacity:1" />
      <use
         transform="translate(0,768)"
         height="1"
         width="1"
         id="use3882-6-2"
         xlink:href="#g3861"
         y="0"
         x="0"
         style="fill:#1a1a1a;stroke:#ffffff;stroke-opacity:1" />
      <use
         transform="translate(128,768)"
         height="1"
         width="1"
         id="use3882-1-06"
         xlink:href="#g3861"
         y="0"
         x="0"
         style="fill:#1a1a1a;stroke:#ffffff;stroke-opacity:1" />
      <use
         transform="translate(256,768)"
         height="1"
         width="1"
         id="use3882-29-89"
         xlink:href="#g3861"
         y="0"
         x="0"
         style="fill:#1a1a1a;stroke:#ffffff;stroke-opacity:1" />
      <use
         transform="translate(384,768)"
         height="1"
         width="1"
         id="use3882-31-2"
         xlink:href="#g3861"
         y="0"
         x="0"
         style="fill:#1a1a1a;stroke:#ffffff;stroke-opacity:1" />
      <use
         transform="translate(512,768)"
         height="1"
         width="1"
         id="use3882-94-6"
         xlink:href="#g3861"
         y="0"
         x="0"
         style="fill:#1a1a1a;stroke:#ffffff;stroke-opacity:1" />
      <use
         transform="translate(640,768)"
         height="1"
         width="1"
         id="use3882-78-64"
         xlink:href="#g3861"
         y="0"
         x="0"
         style="fill:#1a1a1a;stroke:#ffffff;stroke-opacity:1" />
      <use
         transform="translate(768,768)"
         height="1"
         width="1"
         id="use3882-4-95"
         xlink:href="#g3861"
         y="0"
         x="0"
         style="fill:#1a1a1a;stroke:#ffffff;stroke-opacity:1" />
      <use
         transform="translate(896,768)"
         height="1"
         width="1"
         id="use3882-50-0"
         xlink:href="#g3861"
         y="0"
         x="0"
         style="fill:#1a1a1a;stroke:#ffffff;stroke-opacity:1" />
      <use
         transform="translate(1024,768)"
         height="1"
         width="1"
         id="use3882-36-4"
         xlink:href="#g3861"
         y="0"
         x="0"
         style="fill:#1a1a1a;stroke:#ffffff;stroke-opacity:1" />
      <use
         transform="translate(0,896)"
         height="1"
         width="1"
         id="use3882-6-8"
         xlink:href="#g3861"
         y="0"
         x="0"
         style="fill:#1a1a1a;stroke:#ffffff;stroke-opacity:1" />
      <use
         transform="translate(128,896)"
         height="1"
         width="1"
         id="use3882-1-71"
         xlink:href="#g3861"
         y="0"
         x="0"
         style="fill:#1a1a1a;stroke:#ffffff;stroke-opacity:1" />
      <use
         transform="translate(256,896)"
         height="1"
         width="1"
         id="use3882-29-72"
         xlink:href="#g3861"
         y="0"
         x="0"
         style="fill:#1a1a1a;stroke:#ffffff;stroke-opacity:1" />
      <use
         transform="translate(384,896)"
         height="1"
         width="1"
         id="use3882-31-7"
         xlink:href="#g3861"
         y="0"
         x="0"
         style="fill:#1a1a1a;stroke:#ffffff;stroke-opacity:1" />
      <use
         transform="translate(512,896)"
         height="1"
         width="1"
         id="use3882-94-22"
         xlink:href="#g3861"
         y="0"
         x="0"
         style="fill:#1a1a1a;stroke:#ffffff;stroke-opacity:1" />
      <use
         transform="translate(640,896)"
         height="1"
         width="1"
         id="use3882-78-61"
         xlink:href="#g3861"
         y="0"
         x="0"
         style="fill:#1a1a1a;stroke:#ffffff;stroke-opacity:1" />
      <use
         transform="translate(768,896)"
         height="1"
         width="1"
         id="use3882-4-0"
         xlink:href="#g3861"
         y="0"
         x="0"
         style="fill:#1a1a1a;stroke:#ffffff;stroke-opacity:1" />
      <use
         transform="translate(896,896)"
         height="1"
         width="1"
         id="use3882-50-6"
         xlink:href="#g3861"
         y="0"
         x="0"
         style="fill:#1a1a1a;stroke:#ffffff;stroke-opacity:1" />
      <use
         transform="translate(1024,896)"
         height="1"
         width="1"
         id="use3882-36-1"
         xlink:href="#g3861"
         y="0"
         x="0"
         style="fill:#1a1a1a;stroke:#ffffff;stroke-opacity:1" />
      <use
         transform="translate(0,1024)"
         height="1"
         width="1"
         id="use3882-6-59"
         xlink:href="#g3861"
         y="0"
         x="0"
         style="fill:#1a1a1a;stroke:#ffffff;stroke-opacity:1" />
      <use
         transform="translate(128,1024)"
         height="1"
         width="1"
         id="use3882-1-49"
         xlink:href="#g3861"
         y="0"
         x="0"
         style="fill:#1a1a1a;stroke:#ffffff;stroke-opacity:1" />
      <use
         transform="translate(256,1024)"
         height="1"
         width="1"
         id="use3882-29-0"
         xlink:href="#g3861"
         y="0"
         x="0"
         style="fill:#1a1a1a;stroke:#ffffff;stroke-opacity:1" />
      <use
         transform="translate(384,1024)"
         height="1"
         width="1"
         id="use3882-31-9"
         xlink:href="#g3861"
         y="0"
         x="0"
         style="fill:#1a1a1a;stroke:#ffffff;stroke-opacity:1" />
      <use
         transform="translate(512,1024)"
         height="1"
         width="1"
         id="use3882-94-1"
         xlink:href="#g3861"
         y="0"
         x="0"
         style="fill:#1a1a1a;stroke:#ffffff;stroke-opacity:1" />
      <use
         transform="translate(640,1024)"
         height="1"
         width="1"
         id="use3882-78-77"
         xlink:href="#g3861"
         y="0"
         x="0"
         style="fill:#1a1a1a;stroke:#ffffff;stroke-opacity:1" />
      <use
         transform="translate(768,1024)"
         height="1"
         width="1"
         id="use3882-4-1"
         xlink:href="#g3861"
         y="0"
         x="0"
         style="fill:#1a1a1a;stroke:#ffffff;stroke-opacity:1" />
      <use
         transform="translate(896,1024)"
         height="1"
         width="1"
         id="use3882-50-15"
         xlink:href="#g3861"
         y="0"
         x="0"
         style="fill:#1a1a1a;stroke:#ffffff;stroke-opacity:1" />
      <use
         transform="translate(1024,1024)"
         height="1"
         width="1"
         id="use3882-36-97"
         xlink:href="#g3861"
         y="0"
         x="0"
         style="fill:#1a1a1a;stroke:#ffffff;stroke-opacity:1" />
    </g>
    <path
       style="fill:#000000;fill-opacity:1;stroke:none"
       d="m 384,316.36218 c -64,0 -128,64 -128,128 0,64 128,192 256,320 128,-128 256,-256 256,-320 0,-64 -64,-128 -128,-128 -64,0 -128,64 -128,128 0,-64 -64,-128 -128,-128 z"
       id="path2987"
       inkscape:connector-curvature="0"
       sodipodi:nodetypes="sscsscs" />
  </g>
</svg>
