<?xml version="1.0" encoding="UTF-8" standalone="no"?>
<!-- Created with Inkscape (http://www.inkscape.org/) -->

<svg
   xmlns:dc="http://purl.org/dc/elements/1.1/"
   xmlns:cc="http://creativecommons.org/ns#"
   xmlns:rdf="http://www.w3.org/1999/02/22-rdf-syntax-ns#"
   xmlns:svg="http://www.w3.org/2000/svg"
   xmlns="http://www.w3.org/2000/svg"
   xmlns:sodipodi="http://sodipodi.sourceforge.net/DTD/sodipodi-0.dtd"
   xmlns:inkscape="http://www.inkscape.org/namespaces/inkscape"
   width="256"
   height="256"
   id="svg2"
   version="1.1"
   inkscape:version="0.48.3.1 r9886"
   sodipodi:docname="mahopa-augenkrebs-06.svg"
   inkscape:export-filename="/home/rpolzer/Games/Xonotic/data/xonotic-maps.pk3dir/textures/map_augenkrebs/mahopa-augenkrebs-06.png"
   inkscape:export-xdpi="90"
   inkscape:export-ydpi="90">
  <defs
     id="defs4" />
  <sodipodi:namedview
     id="base"
     pagecolor="#ffffff"
     bordercolor="#666666"
     borderopacity="1.0"
     inkscape:pageopacity="1"
     inkscape:pageshadow="2"
     inkscape:zoom="1.4"
     inkscape:cx="285.37126"
     inkscape:cy="122.48806"
     inkscape:document-units="px"
     inkscape:current-layer="layer1"
     showgrid="true"
     inkscape:window-width="1680"
     inkscape:window-height="1025"
     inkscape:window-x="0"
     inkscape:window-y="0"
     inkscape:window-maximized="1">
    <inkscape:grid
       type="xygrid"
       id="grid2985"
       empspacing="4"
       visible="true"
       enabled="true"
       snapvisiblegridlinesonly="true"
       spacingx="16px"
       spacingy="16px" />
  </sodipodi:namedview>
  <metadata
     id="metadata7">
    <rdf:RDF>
      <cc:Work
         rdf:about="">
        <dc:format>image/svg+xml</dc:format>
        <dc:type
           rdf:resource="http://purl.org/dc/dcmitype/StillImage" />
        <dc:title />
      </cc:Work>
    </rdf:RDF>
  </metadata>
  <g
     inkscape:label="Layer 1"
     inkscape:groupmode="layer"
     id="layer1"
     transform="translate(0,-796.36218)">
    <path
       style="fill:#000000;fill-opacity:1;stroke:none"
       d="m 331.01122,801.1891 c -1.34919,-0.37724 -1.01434,-2.08571 -0.9645,-3.15151 0.11422,-3.54225 0.0169,-7.08673 0.0895,-10.62974 1.13355,-0.50482 -0.37248,-1.6837 -1.1365,-1.58641 -2.3204,-0.71604 -4.75104,-0.76966 -7.15058,-0.54128 -5.38168,0.38173 -10.75135,0.95697 -16.15042,1.06519 -10.43604,0.32499 -20.87711,0.0204 -31.31548,0.125 -16.19469,0.006 -32.45625,0.14393 -48.51548,2.46942 -14.39023,1.96526 -28.84025,4.20264 -43.40961,3.80629 -12.02107,-0.15089 -23.90489,-2.1265 -35.77595,-3.82788 -9.36553,-1.3463 -18.79884,-2.434 -28.2755,-2.34335 -18.801159,-0.21355 -37.604149,-0.048 -56.406129,-0.11565 -31.67353,-0.0746 -63.3477804,0.0219 -95.0206,-0.23883 -6.52085,-0.23029 -13.09666,-1.75703 -19.59375,-0.4375 -0.95829,0.36495 -1.80957,1.01548 -2.375,1.875 1.1871,-0.0423 1.58036,1.50875 1.125,2.40625 -0.06408,3.30181 0.0016,6.60444 -0.0625,9.90625 0.56342,0.83102 -1.06339,1.92291 0.03125,2.5625 4.04637,2.00125 8.64179,0.79832 12.93235,0.67459 9.98825,-0.72369 20.00825,-0.99669 30.02071,-0.79465 30.96536,0.15183 61.93186,-0.0731 92.89666,0.18199 17.20311,0.2549 34.436859,0.29354 51.582469,1.89053 14.2288,1.08803 28.39456,3.19032 42.68919,3.25031 7.69798,0.0959 15.3809,-0.46185 23.04238,-1.155 15.87905,-1.30128 31.72715,-3.06409 47.64587,-3.82359 12.00968,-0.49422 24.03335,-0.21096 36.04947,-0.28668 8.72995,0.0278 17.46411,-0.0446 26.19077,0.19859 5.18552,0.17629 10.33733,1.02663 15.52952,0.97123 1.85416,-0.16571 3.91502,-0.23974 5.48311,-1.32607 0.27883,-0.32528 0.96284,-0.61875 0.84375,-1.125 z"
       id="rect2987"
       inkscape:connector-curvature="0"
       sodipodi:nodetypes="zzzzzzzzzzzzzzzzzzzzzzzzzzzzzzzzzzzzzzzzzzzzzzzzzzzzzzzzzzzzzzzzz" />
    <path
       style="fill:#000000;fill-opacity:1;stroke:none"
       d="m 330.77965,833.1891 c -1.28388,-0.48812 -0.64872,-2.06353 -0.6875,-3.07967 0.008,-3.56721 -0.0226,-7.13463 0.0312,-10.70158 1.36834,0.35725 0.0471,-1.61763 -0.79577,-1.31976 -3.3641,-1.64694 -7.18343,-0.64673 -10.75031,-0.56707 -8.32906,0.85287 -16.71036,1.07603 -25.07731,0.89199 -20.40323,0.11098 -40.82339,-0.0188 -61.20418,1.07401 -16.94126,1.37097 -33.80433,3.78205 -50.80494,4.34955 -11.8678,0.32687 -23.7399,-0.20351 -35.57469,-1.07346 -10.73916,-0.7632 -21.46849,-1.67646 -32.22508,-2.17344 -12.06638,-0.58619 -24.132669,-1.18267 -36.199949,-1.74484 -18.62212,-0.63172 -37.25752,-0.33771 -55.88642,-0.40573 -19.5631004,-0.0224 -39.1325,0.0698 -58.6891,-0.44038 -5.2453,-0.40312 -10.6352,-1.53203 -15.8235,-0.12212 -0.9104,0.45411 -1.7224,1.12249 -2.25,2 0.8802,-0.6631 1.9522,0.8358 1.25,1.5625 -0.0088,4.01042 0.0241,8.02107 -0.0312,12.03125 -1.0538,0.80098 0.6671,1.74947 1.4759,1.66487 4.1259,1.24698 8.4323,0.0815 12.6285,-0.0278 12.3903,-1.01613 24.8304,-0.64297 37.2470996,-0.66494 20.6171004,0.1316 41.2397004,-0.1929 61.8524004,0.33815 16.33301,0.76226 32.59049,2.57642 48.891019,3.78508 11.0703,0.74069 22.1637,1.13724 33.25966,1.06093 12.56022,-0.15588 25.12115,-0.50953 37.65787,-1.32472 17.33711,-1.08469 34.65366,-2.53252 52.00843,-3.32189 20.73696,-0.75971 41.49243,-0.41411 62.23835,-0.54089 8.28594,0.008 16.59313,0.009 24.8393,0.91722 3.68479,0.28333 7.49017,0.55245 11.08892,-0.44847 0.57193,-0.20152 2.06484,-1.27457 1.53125,-1.71875 z"
       id="rect2987-2"
       inkscape:connector-curvature="0"
       sodipodi:nodetypes="zzzzzzzzzzzzzzzzzzzzzzzzzzzzzzzzzzzzzzzzzzzzzzzzzzzzzzzzzzzzzzzzz" />
    <path
       style="fill:#000000;fill-opacity:1;stroke:none"
       d="m 330.77965,865.1891 c -1.28843,-0.48128 -0.7172,-2.07285 -0.6875,-3.07967 0.008,-3.56721 -0.0226,-7.13463 0.0312,-10.70158 1.35257,0.44442 0.0368,-1.57312 -0.79229,-1.29528 -3.20678,-1.62113 -6.87298,-0.65616 -10.29076,-0.64254 -9.10439,0.81033 -18.24998,1.15796 -27.38879,0.94094 -28.93883,0.11234 -57.9151,-0.29809 -86.80437,1.72695 -23.04513,1.40821 -46.0847,2.93874 -69.14452,4.08293 -15.6422,0.58207 -31.3415,0.16935 -46.885309,-1.75325 -13.62088,-1.55026 -27.21701,-3.65914 -40.95211,-3.83439 -12.7222,-0.31739 -25.45,-0.0744 -38.1745004,-0.20395 -15.1925,-0.0627 -30.3918996,0.0959 -45.5777996,-0.38833 -5.496,-0.33957 -11.0973,-1.52706 -16.552,-0.22683 -1.0022,0.38044 -2.0414,0.92136 -2.5626,1.90625 0.9849,-0.23458 1.7128,1.15739 1.0938,1.90625 -0.0089,3.94792 0.0241,7.89607 -0.0312,11.84375 -0.8789,0.76742 0.523,1.68188 1.3042,1.6921 4.5886,1.11789 9.2896,0.0706 13.92,-0.12081 14.8114,-1.12639 29.6728996,-0.44416 44.5084996,-0.57129 12.7613004,0.0294 25.5267004,-0.0222 38.2841004,0.32131 10.5645,0.35006 21.06363,1.66723 31.5128,3.20209 11.97775,1.74543 24.02272,3.40655 36.154529,3.31395 19.38709,0.0532 38.54347,-3.31676 57.81584,-4.91938 18.89359,-1.35063 37.8464,-1.49274 56.77935,-1.70865 26.20045,-0.19805 52.40238,-0.23882 78.60331,-0.16443 5.50614,0.005 10.97938,0.63081 16.46107,1.04886 2.76364,0.11921 5.66919,0.1555 8.27376,-0.85625 0.32143,-0.24035 1.83198,-1.2097 1.10124,-1.51875 z"
       id="rect2987-0"
       inkscape:connector-curvature="0"
       sodipodi:nodetypes="zzzzzzzzzzzzzzzzzzzzzzzzzzzzzzzzzzzzzzzzzzzzzzzzzzzzzzzzzzzzzzzzz" />
    <path
       style="fill:#000000;fill-opacity:1;stroke:none"
       d="m 331.09215,883.4391 c -1.98565,-2.41545 -5.42648,-2.42632 -8.28125,-2.1875 -12.43356,1.12176 -24.92851,1.28601 -37.40464,1.16124 -26.59047,0.13812 -53.18221,0.0721 -79.77117,0.43182 -20.9394,0.3289 -41.96357,0.46306 -62.73534,3.43788 -12.48008,1.60187 -25.01659,3.41033 -37.6319,3.06264 -13.203539,-0.40583 -26.244739,-2.66071 -39.309969,-4.42675 -9.79753,-1.43446 -19.68953,-2.14356 -29.58753,-2.2996 -13.3336,-0.33125 -26.6732004,-0.11931 -40.0094004,-0.17973 -14.4350996,0.0345 -28.8890996,-0.0534 -43.2856996,-1.20411 -2.6095,-0.0203 -5.4532,0.10995 -7.6081,1.76661 -0.4257,0.99627 1.3626,1.59675 0.7188,2.625 -0.301,3.85851 0.0335,7.73214 -0.1563,11.59375 -0.6819,1.02825 0.5432,2.02052 1.5441,1.98678 5.3483,1.14857 10.7804,-0.22404 16.1597,-0.36182 12.9043,-0.7842 25.8375,-0.26971 38.7554996,-0.37496 15.2913004,0.0414 30.6004004,-0.12792 45.8702004,0.81206 9.0988,0.57206 18.13453,1.82409 27.13535,3.23817 12.8548,1.96793 25.859949,3.56205 38.888169,2.8694 19.51794,-0.89726 38.59571,-6.09988 58.16416,-6.38773 15.62019,-0.38655 31.24772,-0.29191 46.87153,-0.37394 29.28373,-0.0861 58.56843,-0.18074 87.85178,0.008 5.72739,9e-4 11.40404,0.99892 17.12966,0.95177 2.06539,-0.19624 4.44195,-0.13962 6.09257,-1.56869 0.47227,-0.88152 -0.6749,-1.74936 -0.61897,-2.70495 0.40537,-3.92228 0.14453,-7.89828 0.21875,-11.84375 0.31082,-0.10658 1.20268,0.79036 1,-0.0312 z"
       id="rect2987-23"
       inkscape:connector-curvature="0"
       sodipodi:nodetypes="zzzzzzzzzzzzzzzzzzzzzzzzzzzzzzzzzzzzzzzzzzzzzzzzzzzzzzzzzzzzzzzzz" />
    <path
       style="fill:#000000;fill-opacity:1;stroke:none"
       d="m 330.9984,929.22035 c -1.29307,-0.17113 -1.14744,-1.81308 -0.90625,-2.75 0.009,-3.68751 -0.0241,-7.37525 0.0312,-11.0625 1.1539,0.27941 0.19262,-1.29091 -0.46875,-1.28125 -1.05754,-0.15069 -2.05645,-0.80908 -3.18113,-0.8372 -3.22697,-0.34938 -6.45656,0.28117 -9.68277,0.39321 -10.60476,0.87738 -21.25524,0.8779 -31.88758,0.76281 -29.92535,0.0898 -59.85171,-0.10721 -89.77603,0.22869 -11.3647,0.26041 -22.71916,1.02023 -34.03137,2.13612 -7.74652,0.76632 -15.43954,1.95822 -23.16163,2.92114 -11.59267,1.42572 -23.3071,2.24187 -34.97958,1.41594 -17.695549,-0.95623 -35.112129,-4.6059 -52.789009,-5.78118 -18.9545,-1.26146 -37.9616,-0.69764 -56.9421004,-0.92703 -10.0148996,-0.0581 -20.0464996,0.19643 -30.0465996,-0.44613 -5.2519,-0.47531 -10.5963,-1.25427 -15.8347,-0.24137 -0.9731,0.51088 -1.9703,1.12105 -2.5,2.125 0.8638,-0.63112 1.9556,0.8432 1.25,1.5625 -0.0088,4.01043 0.0241,8.02107 -0.0312,12.03125 -0.8565,0.89096 0.6658,1.74318 1.4917,1.72335 2.9438,0.69644 5.9879,0.60227 8.9653,0.21306 10.4537,-1.01482 20.9651,-1.09897 31.4582,-0.94506 20.7520996,0.2989 41.5132,0.12765 62.2577,0.84477 19.0433,0.67826 37.98835,2.86711 56.904529,5.05665 11.20598,1.09164 22.49976,1.26921 33.73347,0.51831 8.90616,-0.75475 17.78579,-1.77934 26.65034,-2.92054 13.78273,-1.77078 27.63783,-3.09465 41.53923,-3.33966 8.84082,-0.18229 17.68525,-0.0393 26.52753,-0.1217 24.9365,0.0156 49.87561,-0.14613 74.81022,0.11281 6.16458,0.45908 12.41843,1.7173 18.56798,0.45176 0.90039,-0.39811 1.75338,-1.01827 2.21875,-1.90625 l -0.17343,0.0578 -0.0141,0.005 z"
       id="rect2987-7"
       inkscape:connector-curvature="0"
       sodipodi:nodetypes="zzzzzzzzzzzzzzzzzzzzzzzzzzzzzzzzzzzzzzzzzzzzzzzzzzzzzzzzzzzzzzzzz" />
    <path
       style="fill:#000000;fill-opacity:1;stroke:none"
       d="m 331.09215,947.4391 c -2.12876,-2.42414 -5.66233,-2.41737 -8.625,-2.1875 -10.59688,0.95501 -21.24292,1.43384 -31.88278,1.1875 -25.40195,0.053 -50.80605,-0.15152 -76.20613,0.22611 -16.83637,0.50594 -33.5124,3.02554 -50.20333,5.09483 -12.93418,1.61236 -25.98679,2.64442 -39.02505,1.97576 -18.69536,-0.9538 -37.167399,-4.25821 -55.817839,-5.73022 -24.04297,-1.88883 -48.17997,-1.51657 -72.2756704,-1.56648 -14.0603996,-0.0232 -28.1570996,0.23767 -42.1683996,-1.14848 -2.7458,-0.10652 -5.6386,-0.21459 -8.2292,0.81238 -0.5078,0.29964 -2.4138,1.929 -1.3166,1.61735 1.2436,0.17929 0.9155,1.46504 0.75,2.26717 -0.0079,3.82762 0.0227,7.65545 -0.0312,11.48283 -0.8915,0.70687 0.3925,1.58513 1.125,1.65625 1.8864,0.40339 3.8386,0.68424 5.7888,0.54346 2.7742,-0.17871 5.5432,-0.45348 8.3189,-0.62437 6.9052,-0.58706 13.8375,-0.71452 20.764,-0.60205 24.8819996,0.0425 49.7643,0.13636 74.6453,0.3504 14.94041,0.24481 29.89766,0.93156 44.715829,2.94186 14.67174,1.89775 29.42013,3.58342 44.23736,3.4532 12.83425,0.004 25.60691,-1.4211 38.33315,-2.94612 13.63123,-1.65317 27.30233,-3.20132 41.04603,-3.41406 15.62659,-0.38146 31.25869,-0.21554 46.88799,-0.32732 13.22476,0.0263 26.45479,-0.0947 39.67505,0.27242 5.85081,0.26881 11.8417,1.74658 17.61879,0.13383 0.64955,-0.22148 1.71626,-0.87585 1.41228,-1.6388 -1.26649,-1.28782 -0.30287,-3.10884 -0.50603,-4.66901 -0.066,-3.0638 -0.0359,-6.12718 0,-9.19219 0.22847,0.11655 1.18253,0.76309 0.96875,0.0312 z"
       id="rect2987-5"
       inkscape:connector-curvature="0"
       sodipodi:nodetypes="zzzzzzzzzzzzzzzzzzzzzzzzzzzzzzzzzzzzzzzzzzzzzzzzzzzzzzzzzzzzzzzzz" />
    <path
       style="fill:#000000;fill-opacity:1;stroke:none"
       d="m 330.8734,993.28285 c -1.35497,-0.5519 -0.83616,-2.25334 -0.78125,-3.36561 0.008,-3.50315 -0.0228,-7.00651 0.0312,-10.50939 1.1539,0.27941 0.19262,-1.29091 -0.46875,-1.28125 -1.05754,-0.15069 -2.05645,-0.80908 -3.18113,-0.8372 -3.47174,-0.35837 -6.94257,0.33988 -10.41276,0.46867 -10.6736,0.86339 -21.3905,0.76734 -32.08881,0.68103 -19.21231,0.0487 -38.43288,-0.13674 -57.63632,0.54804 -16.959,0.81994 -33.76008,3.46183 -50.68551,4.70536 -21.35228,1.73255 -42.76378,-0.24714 -64.01869,-2.30101 -14.423259,-1.39329 -28.881529,-2.64108 -43.382599,-2.68842 -19.90928,-0.33589 -39.82188,-0.20639 -59.7330804,-0.26397 -14.9204,-0.0346 -29.8467996,0.12096 -44.7616996,-0.33122 -5.6937,-0.54034 -11.5965,-1.67741 -17.2004,0.007 -0.9728,0.35695 -1.4912,1.50352 -0.5865,2.23075 0.6511,1.59074 -0.2169,3.31509 0.125,4.95936 0.0158,2.39905 -0.0452,4.79935 0.0625,7.19689 -1.036,0.87596 -0.1314,2.70934 1.1758,2.55022 4.681,1.42489 9.5534,0.0764 14.3136,-0.0177 13.1005,-1.05081 26.2528,-0.43984 39.3776996,-0.59155 32.0763004,0.0747 64.1555804,-0.10001 96.2289804,0.38115 15.565979,0.61687 31.101579,1.8817 46.591419,3.5216 11.14495,1.13292 22.33209,2.13765 33.54675,1.92115 13.01069,-0.2242 25.92251,-2.01947 38.84653,-3.37839 14.85441,-1.68292 29.80508,-2.50478 44.75496,-2.38651 16.71434,0.0256 33.43611,-0.20451 50.14423,0.29294 5.9035,0.18444 11.91668,1.66701 17.75718,0.17253 0.70751,-0.31457 2.06019,-0.71886 1.9816,-1.68422 z"
       id="rect2987-9"
       inkscape:connector-curvature="0"
       sodipodi:nodetypes="zzzzzzzzzzzzzzzzzzzzzzzzzzzzzzzzzzzzzzzzzzzzzzzzzzzzzzzzzzzzzzzzz" />
    <path
       style="fill:#000000;fill-opacity:1;stroke:none"
       d="m 330.9359,1025.3766 c -1.48503,-0.7233 -0.82271,-2.6039 -0.8706,-3.8968 0.0584,-3.3571 -0.005,-6.7149 0.0581,-10.072 1.21204,0.1025 -0.0815,-1.574 -0.82625,-1.3578 -1.43564,-0.4804 -2.87845,-0.9969 -4.42375,-0.8609 -3.54958,-0.022 -7.07232,0.5126 -10.6145,0.6847 -10.54164,0.7757 -21.12072,0.6214 -31.6823,0.5732 -19.08697,0.092 -38.27228,-0.3116 -57.22281,2.3708 -10.40692,1.2549 -20.74551,3.0486 -31.17821,4.0836 -10.49132,0.9254 -21.07612,0.4861 -31.48744,-1.0606 -13.67908,-1.8836 -27.32778,-4.3286 -41.16073,-4.7261 -19.21148,-0.7377 -38.441509,-0.5351 -57.662959,-0.5819 -29.2136,-0.021 -58.4284004,0.061 -87.6409,-0.238 -5.8229,-0.1226 -11.6675,-0.011 -17.4589,-0.7171 -4.0415,-0.3688 -8.2694,-0.7041 -12.1761,0.6064 -0.4164,0.2585 -2.0736,1.3882 -1.2464,1.5362 1.3317,0.214 0.7926,1.745 0.75,2.6469 -0.0081,3.7011 0.0228,7.4023 -0.0312,11.1031 -0.8012,0.9084 0.6555,1.7507 1.4915,1.7246 5.0972,1.2065 10.2792,-0.2391 15.4161,-0.2854 14.3766,-0.8817 28.7831996,-0.367 43.1747996,-0.4704 26.7709004,0.01 53.5419004,0.022 80.3127804,0.072 13.641119,0.092 27.286879,0.1112 40.923099,0.4562 15.04707,0.9558 29.51768,5.6237 44.40773,7.652 8.74288,1.2133 17.65543,1.3157 26.40039,0.061 10.33092,-1.4517 20.42553,-4.1776 30.7036,-5.923 13.50928,-2.1928 27.2362,-2.2812 40.88708,-2.233 13.9688,-0.054 27.94568,-0.2656 41.90787,0.2577 5.21632,0.3278 10.464,1.2042 15.6875,0.5625 1.28406,-0.2626 2.77582,-0.6681 3.5625,-1.7812 l 0.0312,-0.094 -0.0312,-0.094 z"
       id="rect2987-22"
       inkscape:connector-curvature="0"
       sodipodi:nodetypes="zzzzzzzzzzzzzzzzzzzzzzzzzzzzzzzzzzzzzzzzzzzzzzzzzzzzzzzzzzzzzzzzz" />
    <path
       style="fill:#000000;fill-opacity:1;stroke:none"
       d="m 331.01107,1057.1891 c -1.34919,-0.3772 -1.01434,-2.0857 -0.9645,-3.1515 0.11422,-3.5423 0.0169,-7.0867 0.0895,-10.6298 1.13355,-0.5048 -0.37248,-1.6837 -1.13651,-1.5864 -2.32039,-0.716 -4.75103,-0.7696 -7.15057,-0.5412 -5.38168,0.3817 -10.75135,0.9569 -16.15042,1.0651 -10.43604,0.325 -20.87711,0.02 -31.31548,0.125 -16.19469,0.01 -32.45625,0.144 -48.51548,2.4695 -14.39023,1.9652 -28.84025,4.2026 -43.40961,3.8063 -12.02107,-0.1509 -23.90489,-2.1265 -35.77595,-3.8279 -9.36553,-1.3463 -18.79884,-2.434 -28.27552,-2.3434 -18.801099,-0.2135 -37.604099,-0.048 -56.406079,-0.1156 -31.6735,-0.075 -63.3478004,0.022 -95.0206,-0.2389 -6.5209,-0.2302 -13.0967,-1.757 -19.5938,-0.4375 -0.9583,0.365 -1.8095,1.0155 -2.375,1.875 1.1871,-0.042 1.5804,1.5088 1.125,2.4063 -0.064,3.3018 0,6.6044 -0.062,9.9062 0.5635,0.8311 -1.0634,1.923 0.031,2.5625 4.0464,2.0013 8.6418,0.7984 12.9324,0.6746 9.9882,-0.7237 20.0082,-0.9967 30.0207,-0.7946 30.9654,0.1518 61.9319,-0.073 92.89668,0.182 17.2031,0.2549 34.436799,0.2935 51.582429,1.8905 14.2288,1.088 28.39456,3.1903 42.68918,3.2503 7.69804,0.096 15.38096,-0.4618 23.04243,-1.155 15.87906,-1.3013 31.72716,-3.0641 47.64588,-3.8236 12.00968,-0.4942 24.03335,-0.2109 36.04947,-0.2867 8.72995,0.028 17.46411,-0.045 26.19077,0.1986 5.18552,0.1763 10.33733,1.0267 15.52952,0.9713 1.85416,-0.1657 3.91502,-0.2398 5.48311,-1.3261 0.27882,-0.3253 0.96284,-0.6188 0.84375,-1.125 z"
       id="rect2987-74"
       inkscape:connector-curvature="0"
       sodipodi:nodetypes="zzzzzzzzzzzzzzzzzzzzzzzzzzzzzzzzzzzzzzzzzzzzzzzzzzzzzzzzzzzzzzzzz" />
  </g>
</svg>
