<?xml version="1.0" encoding="UTF-8" standalone="no"?>
<!-- Created with Inkscape (http://www.inkscape.org/) -->

<svg
   xmlns:dc="http://purl.org/dc/elements/1.1/"
   xmlns:cc="http://creativecommons.org/ns#"
   xmlns:rdf="http://www.w3.org/1999/02/22-rdf-syntax-ns#"
   xmlns:svg="http://www.w3.org/2000/svg"
   xmlns="http://www.w3.org/2000/svg"
   xmlns:sodipodi="http://sodipodi.sourceforge.net/DTD/sodipodi-0.dtd"
   xmlns:inkscape="http://www.inkscape.org/namespaces/inkscape"
   width="256"
   height="256"
   id="svg2"
   version="1.1"
   inkscape:version="0.48.3.1 r9886"
   sodipodi:docname="mahopa-augenkrebs-06.svg"
   inkscape:export-filename="/home/rpolzer/Games/Xonotic/data/xonotic-maps.pk3dir/textures/map_augenkrebs/mahopa-augenkrebs-06.png"
   inkscape:export-xdpi="90"
   inkscape:export-ydpi="90">
  <defs
     id="defs4" />
  <sodipodi:namedview
     id="base"
     pagecolor="#ffffff"
     bordercolor="#666666"
     borderopacity="1.0"
     inkscape:pageopacity="1"
     inkscape:pageshadow="2"
     inkscape:zoom="1.4"
     inkscape:cx="285.37126"
     inkscape:cy="138.99706"
     inkscape:document-units="px"
     inkscape:current-layer="layer1"
     showgrid="true"
     inkscape:window-width="1680"
     inkscape:window-height="1025"
     inkscape:window-x="0"
     inkscape:window-y="0"
     inkscape:window-maximized="1">
    <inkscape:grid
       type="xygrid"
       id="grid2985"
       empspacing="4"
       visible="true"
       enabled="true"
       snapvisiblegridlinesonly="true"
       spacingx="16px"
       spacingy="16px" />
  </sodipodi:namedview>
  <metadata
     id="metadata7">
    <rdf:RDF>
      <cc:Work
         rdf:about="">
        <dc:format>image/svg+xml</dc:format>
        <dc:type
           rdf:resource="http://purl.org/dc/dcmitype/StillImage" />
        <dc:title></dc:title>
      </cc:Work>
    </rdf:RDF>
  </metadata>
  <g
     inkscape:label="Layer 1"
     inkscape:groupmode="layer"
     id="layer1"
     transform="translate(0,-796.36218)">
    <path
       style="fill:#000000;fill-opacity:1;stroke:none"
       d="M 14.75 -64.90625 C 14.372758 -63.557058 12.664294 -63.891908 11.598492 -63.94175 C 8.0562397 -64.055974 4.5117583 -63.958613 0.96875 -64.03125 C 0.4639313 -65.164802 -0.71495195 -63.658767 -0.61766345 -62.894745 C -1.3336979 -60.574348 -1.387316 -58.143708 -1.1589417 -55.744174 C -0.77720637 -50.362492 -0.20196831 -44.992822 -0.09375 -39.59375 C 0.23124392 -29.157713 -0.073349481 -18.716637 0.03125 -8.278268 C 0.03714027 7.9164169 0.17517652 24.177979 2.5006697 40.237213 C 4.4659342 54.62744 6.7033066 69.077464 6.306961 83.646822 C 6.1560661 95.667894 4.1804556 107.55171 2.4790763 119.42277 C 1.1327822 128.7883 0.045082814 138.22161 0.13573192 147.69827 C -0.077819699 166.49943 0.087703536 185.30242 0.020077861 204.1044 C -0.054563394 235.77793 0.041998508 267.45218 -0.21875 299.125 C -0.44904258 305.64585 -1.975775 312.22166 -0.65625 318.71875 C -0.29129754 319.67704 0.35922768 320.52832 1.21875 321.09375 C 1.1765033 319.90665 2.727502 319.51339 3.625 319.96875 C 6.9268096 320.03283 10.22944 319.9672 13.53125 320.03125 C 14.362268 319.46783 15.454165 321.09464 16.09375 320 C 18.095005 315.95363 16.89207 311.35821 16.76834 307.06765 C 16.044647 297.0794 15.771646 287.0594 15.973691 277.04694 C 16.125521 246.08158 15.900608 215.11508 16.155678 184.15028 C 16.41058 166.94717 16.449217 149.71342 18.046206 132.56781 C 19.134244 118.33901 21.236531 104.17325 21.296525 89.878625 C 21.39244 82.180639 20.834672 74.497719 20.141523 66.836245 C 18.840236 50.95719 17.077426 35.109092 16.31793 19.190374 C 15.823715 7.1806861 16.106973 -4.8429813 16.03125 -16.8591 C 16.059027 -25.58905 15.9867 -34.32321 16.229845 -43.049866 C 16.406133 -48.235386 17.256471 -53.387202 17.201068 -58.579386 C 17.03536 -60.43355 16.961326 -62.494412 15.875 -64.0625 C 15.549725 -64.341325 15.256255 -65.025339 14.75 -64.90625 z "
       id="rect2987"
       inkscape:connector-curvature="0"
       sodipodi:nodetypes="zzzzzzzzzzzzzzzzzzzzzzzzzzzzzzzzzzzzzzzzzzzzzzzzzzzzzzzzzzzzzzzzz"
       transform="translate(0,796.36218)" />
    <path
       style="fill:#000000;fill-opacity:1;stroke:none"
       d="M 46.75 731.6875 C 46.26188 732.97138 44.686468 732.33622 43.670329 732.375 C 40.103122 732.36713 36.535702 732.3976 32.96875 732.34375 C 33.325997 730.97541 31.35112 732.29663 31.648992 733.13952 C 30.00205 736.50362 31.002262 740.32295 31.081917 743.88983 C 31.934787 752.21889 32.157946 760.60019 31.97391 768.96714 C 32.084891 789.37037 31.955064 809.79053 33.047923 830.17132 C 34.418886 847.11258 36.829972 863.97565 37.397469 880.97626 C 37.724341 892.84406 37.19396 904.71616 36.324015 916.55095 C 35.56081 927.29011 34.647551 938.01944 34.150574 948.77603 C 33.564383 960.84241 32.967896 972.9087 32.405727 984.97598 C 31.774007 1003.5981 32.068017 1022.2335 32 1040.8624 C 31.977584 1060.4255 32.069808 1079.9949 31.559623 1099.5515 C 31.156504 1104.7968 30.027586 1110.1867 31.4375 1115.375 C 31.891612 1116.2854 32.559988 1117.0974 33.4375 1117.625 C 32.774404 1116.7448 34.273297 1115.6728 35 1116.375 C 39.010425 1116.3838 43.021067 1116.3509 47.03125 1116.4062 C 47.832231 1117.46 48.780722 1115.7391 48.696122 1114.9303 C 49.943102 1110.8044 48.777647 1106.498 48.668283 1102.3018 C 47.652151 1089.9115 48.025314 1077.4714 48.003336 1065.0547 C 48.134938 1044.4376 47.81044 1023.815 48.341493 1003.2023 C 49.103752 986.86929 50.917908 970.61181 52.126567 954.31128 C 52.867256 943.24098 53.263806 932.14758 53.1875 921.05162 C 53.031623 908.4914 52.677973 895.93047 51.862782 883.39375 C 50.778095 866.05664 49.330256 848.74009 48.540895 831.38532 C 47.781182 810.64836 48.126779 789.89289 48 769.14697 C 48.007848 760.86103 48.008557 752.55384 48.917224 744.30767 C 49.200551 740.62288 49.469674 736.8175 48.46875 733.21875 C 48.267227 732.64682 47.194177 731.15391 46.75 731.6875 z "
       id="rect2987-2"
       inkscape:connector-curvature="0"
       sodipodi:nodetypes="zzzzzzzzzzzzzzzzzzzzzzzzzzzzzzzzzzzzzzzzzzzzzzzzzzzzzzzzzzzzzzzzz" />
    <path
       style="fill:#000000;fill-opacity:1;stroke:none"
       d="M 78.75 731.6875 C 78.26872 732.97593 76.677151 732.4047 75.670329 732.375 C 72.103122 732.36713 68.535702 732.3976 64.96875 732.34375 C 65.413175 730.99118 63.395632 732.30697 63.673467 733.13604 C 62.052336 736.34282 63.017309 740.00902 63.030931 743.4268 C 63.841264 752.53119 64.188893 761.67678 63.971875 770.81559 C 64.084209 799.75442 63.673783 828.73069 65.698819 857.61996 C 67.107034 880.66509 68.63756 903.70466 69.781749 926.76448 C 70.363821 942.40668 69.951098 958.10598 68.028496 973.64979 C 66.478238 987.27067 64.369358 1000.8668 64.194114 1014.6019 C 63.876725 1027.3241 64.119657 1040.0519 63.990157 1052.7764 C 63.927437 1067.9689 64.086074 1083.1683 63.601832 1098.3542 C 63.262263 1103.8502 62.074771 1109.4515 63.375 1114.9062 C 63.755442 1115.9084 64.296357 1116.9476 65.28125 1117.4688 C 65.046672 1116.4839 66.438639 1115.756 67.1875 1116.375 C 71.135425 1116.3839 75.08357 1116.3509 79.03125 1116.4062 C 79.798674 1117.2851 80.713128 1115.8832 80.723351 1115.102 C 81.841241 1110.5134 80.793942 1105.8124 80.602539 1101.182 C 79.476154 1086.3706 80.158385 1071.5091 80.03125 1056.6735 C 80.060671 1043.9122 80.009022 1031.1468 80.352565 1018.3894 C 80.702616 1007.8249 82.019791 997.32577 83.55465 986.8766 C 85.300076 974.89885 86.961199 962.85388 86.868596 950.72207 C 86.921748 931.33498 83.551838 912.1786 81.949217 892.90623 C 80.59859 874.01264 80.456483 855.05983 80.240572 836.12688 C 80.042524 809.92643 80.001754 783.7245 80.076141 757.52357 C 80.081119 752.01743 80.706951 746.54419 81.125 741.0625 C 81.244214 738.29886 81.280504 735.39331 80.268746 732.78874 C 80.028398 732.46731 79.059052 730.95676 78.75 731.6875 z "
       id="rect2987-0"
       inkscape:connector-curvature="0"
       sodipodi:nodetypes="zzzzzzzzzzzzzzzzzzzzzzzzzzzzzzzzzzzzzzzzzzzzzzzzzzzzzzzzzzzzzzzzz" />
    <path
       style="fill:#000000;fill-opacity:1;stroke:none"
       d="M 97 731.375 C 94.584548 733.36065 94.573678 736.80148 94.8125 739.65625 C 95.93426 752.08981 96.098511 764.58476 95.973742 777.06089 C 96.111856 803.65136 96.045813 830.2431 96.40556 856.83206 C 96.734458 877.77146 96.868619 898.79563 99.843437 919.5674 C 101.44531 932.04748 103.25377 944.58399 102.90608 957.1993 C 102.50025 970.40284 100.24537 983.44404 98.479329 996.50927 C 97.044875 1006.3068 96.33577 1016.1988 96.179734 1026.0968 C 95.848476 1039.4304 96.060423 1052.77 96 1066.1062 C 96.03448 1080.5413 95.94665 1094.9953 94.795889 1109.3919 C 94.775592 1112.0014 94.905843 1114.8451 96.5625 1117 C 97.558772 1117.4257 98.159247 1115.6374 99.1875 1116.2812 C 103.04601 1116.5822 106.91964 1116.2477 110.78125 1116.4375 C 111.8095 1117.1194 112.80177 1115.8943 112.76803 1114.8934 C 113.9166 1109.5451 112.54399 1104.113 112.40621 1098.7337 C 111.62201 1085.8294 112.1365 1072.8962 112.03125 1059.9782 C 112.07266 1044.6869 111.90333 1029.3778 112.84331 1014.108 C 113.41537 1005.0092 114.6674 995.97347 116.08148 986.97265 C 118.04941 974.11785 119.64353 961.1127 118.95088 948.08448 C 118.05362 928.56654 112.851 909.48877 112.56315 889.92032 C 112.1766 874.30013 112.27124 858.6726 112.18921 843.04879 C 112.10307 813.76506 112.00847 784.48036 112.19687 755.19701 C 112.19777 749.46962 113.19579 743.79297 113.14864 738.06735 C 112.9524 736.00196 113.00902 733.6254 111.57995 731.97478 C 110.69843 731.50251 109.83059 732.64968 108.875 732.59375 C 104.95272 732.18838 100.97672 732.44922 97.03125 732.375 C 96.924674 732.06418 97.821611 731.17232 97 731.375 z "
       id="rect2987-23"
       inkscape:connector-curvature="0"
       sodipodi:nodetypes="zzzzzzzzzzzzzzzzzzzzzzzzzzzzzzzzzzzzzzzzzzzzzzzzzzzzzzzzzzzzzzzzz" />
    <path
       style="fill:#000000;fill-opacity:1;stroke:none"
       d="M 142.78125 731.46875 C 142.61012 732.76182 140.96817 732.61619 140.03125 732.375 C 136.34374 732.36614 132.656 732.39908 128.96875 732.34375 C 129.24816 731.18985 127.67784 732.15113 127.6875 732.8125 C 127.53681 733.87004 126.87842 734.86895 126.8503 735.99363 C 126.50092 739.2206 127.13147 742.45019 127.24351 745.6764 C 128.12089 756.28116 128.12141 766.93164 128.00632 777.56398 C 128.09609 807.48933 127.89911 837.41569 128.23501 867.34001 C 128.49542 878.70471 129.25524 890.05917 130.37113 901.37138 C 131.13745 909.1179 132.32935 916.81092 133.29227 924.53301 C 134.71799 936.12568 135.53414 947.84011 134.70821 959.51259 C 133.75198 977.20814 130.10231 994.62472 128.92703 1012.3016 C 127.66557 1031.2561 128.22939 1050.2632 128 1069.2437 C 127.94191 1079.2586 128.19643 1089.2902 127.55387 1099.2903 C 127.07856 1104.5422 126.2996 1109.8866 127.3125 1115.125 C 127.82338 1116.0981 128.43355 1117.0953 129.4375 1117.625 C 128.80638 1116.7612 130.2807 1115.6694 131 1116.375 C 135.01043 1116.3838 139.02107 1116.3509 143.03125 1116.4062 C 143.92221 1117.2627 144.77443 1115.7404 144.7546 1114.9145 C 145.45104 1111.9707 145.35687 1108.9266 144.96766 1105.9492 C 143.95284 1095.4955 143.86869 1084.9841 144.0226 1074.491 C 144.3215 1053.7389 144.15025 1032.9778 144.86737 1012.2333 C 145.54563 993.19 147.73448 974.24495 149.92402 955.32877 C 151.01566 944.12279 151.19323 932.82901 150.44233 921.5953 C 149.68758 912.68914 148.66299 903.80951 147.52179 894.94496 C 145.75101 881.16223 144.42714 867.30713 144.18213 853.40573 C 143.99984 844.56491 144.14286 835.72048 144.06043 826.8782 C 144.07605 801.9417 143.9143 777.00259 144.17324 752.06798 C 144.63232 745.9034 145.89054 739.64955 144.625 733.5 C 144.22689 732.59961 143.60673 731.74662 142.71875 731.28125 L 142.77656 731.45468 L 142.78125 731.46875 z "
       id="rect2987-7"
       inkscape:connector-curvature="0"
       sodipodi:nodetypes="zzzzzzzzzzzzzzzzzzzzzzzzzzzzzzzzzzzzzzzzzzzzzzzzzzzzzzzzzzzzzzzzz" />
    <path
       style="fill:#000000;fill-opacity:1;stroke:none"
       d="M 161 731.375 C 158.57586 733.50376 158.58263 737.03733 158.8125 740 C 159.76751 750.59688 160.24634 761.24292 160 771.88278 C 160.05299 797.28473 159.84848 822.68883 160.22611 848.08891 C 160.73205 864.92528 163.25165 881.60131 165.32094 898.29224 C 166.9333 911.22642 167.96536 924.27903 167.2967 937.31729 C 166.3429 956.01265 163.03849 974.48469 161.56648 993.13513 C 159.67765 1017.1781 160.04991 1041.3151 160 1065.4108 C 159.97685 1079.4712 160.23767 1093.5679 158.85152 1107.5792 C 158.745 1110.325 158.63693 1113.2178 159.6639 1115.8084 C 159.96354 1116.3162 161.5929 1118.2222 161.28125 1117.125 C 161.46054 1115.8814 162.74629 1116.2095 163.54842 1116.375 C 167.37604 1116.3829 171.20387 1116.3523 175.03125 1116.4062 C 175.73812 1117.2977 176.61638 1116.0137 176.6875 1115.2812 C 177.09089 1113.3948 177.37174 1111.4426 177.23096 1109.4924 C 177.05225 1106.7182 176.77748 1103.9492 176.60659 1101.1735 C 176.01953 1094.2683 175.89207 1087.336 176.00454 1080.4095 C 176.04706 1055.5275 176.1409 1030.6452 176.35494 1005.7642 C 176.59975 990.82379 177.2865 975.86654 179.2968 961.04837 C 181.19455 946.37663 182.88022 931.62824 182.75 916.81101 C 182.754 903.97676 181.3289 891.2041 179.80388 878.47786 C 178.15071 864.84663 176.60256 851.17553 176.38982 837.43183 C 176.00836 821.80524 176.17428 806.17314 176.0625 790.54384 C 176.08883 777.31908 175.96784 764.08905 176.33492 750.86879 C 176.60373 745.01798 178.0815 739.02709 176.46875 733.25 C 176.24727 732.60045 175.5929 731.53374 174.82995 731.83772 C 173.54213 733.10421 171.72111 732.14059 170.16094 732.34375 C 167.09714 732.40977 164.03376 732.37965 160.96875 732.34375 C 161.0853 732.11528 161.73184 731.16122 161 731.375 z "
       id="rect2987-5"
       inkscape:connector-curvature="0"
       sodipodi:nodetypes="zzzzzzzzzzzzzzzzzzzzzzzzzzzzzzzzzzzzzzzzzzzzzzzzzzzzzzzzzzzzzzzzz" />
    <path
       style="fill:#000000;fill-opacity:1;stroke:none"
       d="M 206.84375 731.59375 C 206.29185 732.94872 204.59041 732.42991 203.47814 732.375 C 199.97499 732.36697 196.47163 732.3978 192.96875 732.34375 C 193.24816 731.18985 191.67784 732.15113 191.6875 732.8125 C 191.53681 733.87004 190.87842 734.86895 190.8503 735.99363 C 190.49193 739.46537 191.19018 742.9362 191.31897 746.40639 C 192.18236 757.07999 192.08631 767.79689 192 778.4952 C 192.04873 797.70751 191.86326 816.92808 192.54804 836.13152 C 193.36798 853.09052 196.00987 869.8916 197.2534 886.81703 C 198.98595 908.16931 197.00626 929.58081 194.95239 950.83572 C 193.5591 965.25898 192.31131 979.71725 192.26397 994.21832 C 191.92808 1014.1276 192.05758 1034.0402 192 1053.9514 C 191.96539 1068.8718 192.12096 1083.7982 191.66878 1098.7131 C 191.12844 1104.4068 189.99137 1110.3096 191.6755 1115.9135 C 192.03245 1116.8863 193.17902 1117.4047 193.90625 1116.5 C 195.49699 1115.8489 197.22134 1116.7169 198.86561 1116.375 C 201.26466 1116.3592 203.66496 1116.4202 206.0625 1116.3125 C 206.93846 1117.3485 208.77184 1116.4439 208.61272 1115.1367 C 210.03761 1110.4557 208.68916 1105.5833 208.59505 1100.8231 C 207.54424 1087.7226 208.15521 1074.5703 208.0035 1061.4454 C 208.07818 1029.3691 207.90349 997.28982 208.38465 965.21642 C 209.00152 949.65044 210.26635 934.11484 211.90625 918.625 C 213.03917 907.48005 214.04386 896.29291 213.82743 885.07825 C 213.60323 872.06756 211.80793 859.15574 210.44901 846.23172 C 208.76609 831.37731 207.94423 816.42664 208.0625 801.47676 C 208.08812 784.76242 207.85799 768.04065 208.35544 751.33253 C 208.53988 745.42903 210.02245 739.41585 208.52797 733.57535 C 208.2134 732.86784 207.80911 731.51516 206.84375 731.59375 z "
       id="rect2987-9"
       inkscape:connector-curvature="0"
       sodipodi:nodetypes="zzzzzzzzzzzzzzzzzzzzzzzzzzzzzzzzzzzzzzzzzzzzzzzzzzzzzzzzzzzzzzzzz" />
    <path
       style="fill:#000000;fill-opacity:1;stroke:none"
       d="M 238.9375 731.53125 C 238.21417 733.01628 236.33357 732.35396 235.04066 732.40185 C 231.68359 732.3434 228.32579 732.40731 224.96875 732.34375 C 225.0712 731.13171 223.39466 732.42528 223.61089 733.17 C 223.13049 734.60564 222.61403 736.04845 222.75 737.59375 C 222.7284 741.14333 223.26257 744.66607 223.43473 748.20825 C 224.21042 758.74989 224.05608 769.32897 224.00788 779.89055 C 224.10011 798.97752 223.69633 818.16283 226.3787 837.11336 C 227.63365 847.52028 229.42732 857.85887 230.46233 868.29157 C 231.38767 878.78289 230.94838 889.36769 229.40168 899.77901 C 227.51813 913.45809 225.07315 927.10679 224.67565 940.93974 C 223.93788 960.15122 224.14051 979.38125 224.09375 998.6027 C 224.07247 1027.8163 224.15451 1057.0311 223.85567 1086.2436 C 223.73311 1092.0665 223.84456 1097.9111 223.13858 1103.7025 C 222.76984 1107.744 222.43446 1111.9719 223.74503 1115.8786 C 224.00349 1116.295 225.1332 1117.9522 225.28125 1117.125 C 225.49525 1115.7933 227.02618 1116.3324 227.92811 1116.375 C 231.62917 1116.3831 235.33044 1116.3522 239.03125 1116.4062 C 239.93957 1117.2074 240.78186 1115.7507 240.75579 1114.9147 C 241.9623 1109.8175 240.51672 1104.6355 240.47041 1099.4986 C 239.58871 1085.122 240.10336 1070.7154 240 1056.3238 C 240.00739 1029.5529 240.02166 1002.7819 240.07238 976.01102 C 240.16423 962.3699 240.18362 948.72414 240.52856 935.08792 C 241.48438 920.04085 246.15231 905.57024 248.18056 890.68019 C 249.39393 881.93731 249.49635 873.02476 248.24201 864.2798 C 246.79026 853.94888 244.0644 843.85427 242.31902 833.5762 C 240.12618 820.06692 240.03785 806.34 240.08599 792.68912 C 240.03218 778.72032 239.8204 764.74344 240.34375 750.78125 C 240.67155 745.56493 241.54786 740.31725 240.90625 735.09375 C 240.64358 733.80969 240.23812 732.31793 239.125 731.53125 L 239.03125 731.5 L 238.9375 731.53125 z "
       id="rect2987-22"
       inkscape:connector-curvature="0"
       sodipodi:nodetypes="zzzzzzzzzzzzzzzzzzzzzzzzzzzzzzzzzzzzzzzzzzzzzzzzzzzzzzzzzzzzzzzzz" />
    <path
       style="fill:#000000;fill-opacity:1;stroke:none"
       d="m 270.75,731.45608 c -0.37724,1.34919 -2.08571,1.01434 -3.15151,0.9645 -3.54225,-0.11422 -7.08673,-0.0169 -10.62974,-0.0895 -0.50482,-1.13355 -1.6837,0.37248 -1.58641,1.13651 -0.71604,2.32039 -0.76966,4.75103 -0.54128,7.15057 0.38173,5.38168 0.95697,10.75135 1.06519,16.15042 0.32499,10.43604 0.0204,20.87711 0.125,31.31548 0.006,16.19469 0.14393,32.45625 2.46942,48.51548 1.96526,14.39023 4.20264,28.84025 3.80629,43.40961 -0.15089,12.02107 -2.1265,23.90489 -3.82788,35.77595 -1.3463,9.36553 -2.434,18.79884 -2.34335,28.27552 -0.21355,18.8011 -0.048,37.6041 -0.11565,56.40608 -0.0746,31.6735 0.0219,63.3478 -0.23883,95.0206 -0.23029,6.5209 -1.75702,13.0967 -0.4375,19.5938 0.36495,0.9583 1.01548,1.8095 1.875,2.375 -0.0423,-1.1871 1.50875,-1.5804 2.40625,-1.125 3.30181,0.064 6.60444,0 9.90625,0.062 0.83102,-0.5635 1.92291,1.0634 2.5625,-0.031 2.00125,-4.0464 0.79832,-8.6418 0.67459,-12.9324 -0.72369,-9.9882 -0.99669,-20.0082 -0.79465,-30.0207 0.15183,-30.9654 -0.0731,-61.9319 0.18199,-92.89668 0.2549,-17.2031 0.29354,-34.4368 1.89053,-51.58243 1.08803,-14.2288 3.19032,-28.39456 3.25031,-42.68918 0.0959,-7.69804 -0.46185,-15.38096 -1.155,-23.04243 -1.30128,-15.87906 -3.06409,-31.72716 -3.82359,-47.64588 -0.49422,-12.00968 -0.21096,-24.03335 -0.28668,-36.04947 0.0278,-8.72995 -0.0446,-17.46411 0.19859,-26.19077 0.17629,-5.18552 1.02663,-10.33733 0.97123,-15.52952 -0.16571,-1.85416 -0.23974,-3.91502 -1.32607,-5.48311 -0.32528,-0.27882 -0.61875,-0.96284 -1.125,-0.84375 z"
       id="rect2987-74"
       inkscape:connector-curvature="0"
       sodipodi:nodetypes="zzzzzzzzzzzzzzzzzzzzzzzzzzzzzzzzzzzzzzzzzzzzzzzzzzzzzzzzzzzzzzzzz" />
    <path
       style="fill:#000000;fill-opacity:1;stroke:none"
       d="m 302.75,731.68765 c -0.48812,1.28388 -2.06353,0.64872 -3.07967,0.6875 -3.56721,-0.008 -7.13463,0.0226 -10.70158,-0.0312 0.35725,-1.36834 -1.61763,-0.0471 -1.31976,0.79577 -1.64694,3.3641 -0.64673,7.18343 -0.56707,10.75031 0.85287,8.32906 1.07603,16.71036 0.89199,25.07731 0.11098,20.40323 -0.0188,40.82339 1.07401,61.20418 1.37097,16.94126 3.78205,33.80433 4.34955,50.80494 0.32687,11.8678 -0.20351,23.7399 -1.07346,35.57469 -0.7632,10.73916 -1.67646,21.46847 -2.17344,32.22507 -0.58619,12.0664 -1.18267,24.1327 -1.74484,36.2 -0.63172,18.62208 -0.33771,37.25748 -0.40573,55.88638 -0.0224,19.5631 0.0698,39.1325 -0.44038,58.6891 -0.40312,5.2453 -1.53203,10.6352 -0.12212,15.8235 0.45411,0.9104 1.12249,1.7224 2,2.25 -0.6631,-0.8802 0.8358,-1.9522 1.5625,-1.25 4.01042,0.01 8.02107,-0.024 12.03125,0.031 0.80098,1.0538 1.74947,-0.6671 1.66487,-1.4759 1.24698,-4.1259 0.0815,-8.4323 -0.0278,-12.6285 -1.01613,-12.3903 -0.64297,-24.8304 -0.66495,-37.2471 0.13161,-20.6171 -0.19289,-41.2397 0.33816,-61.8524 0.76226,-16.33298 2.57642,-32.59048 3.78508,-48.89098 0.74068,-11.0703 1.13723,-22.16374 1.06093,-33.2597 -0.15588,-12.56007 -0.50953,-25.121 -1.32472,-37.65772 -1.08469,-17.33711 -2.53252,-34.65366 -3.32189,-52.00843 -0.75971,-20.73696 -0.41411,-41.49243 -0.54089,-62.23835 0.008,-8.28594 0.009,-16.59313 0.91722,-24.8393 0.28333,-3.68479 0.55245,-7.49017 -0.44847,-11.08892 -0.20152,-0.57193 -1.27457,-2.06484 -1.71875,-1.53125 z"
       id="rect2987-2-4"
       inkscape:connector-curvature="0"
       sodipodi:nodetypes="zzzzzzzzzzzzzzzzzzzzzzzzzzzzzzzzzzzzzzzzzzzzzzzzzzzzzzzzzzzzzzzzz" />
    <path
       style="fill:#000000;fill-opacity:1;stroke:none"
       d="m 334.75,731.68765 c -0.48128,1.28843 -2.07285,0.7172 -3.07967,0.6875 -3.56721,-0.008 -7.13463,0.0226 -10.70158,-0.0312 0.44442,-1.35257 -1.57312,-0.0368 -1.29528,0.79229 -1.62113,3.20678 -0.65616,6.87298 -0.64254,10.29076 0.81033,9.10439 1.15796,18.24998 0.94094,27.38879 0.11234,28.93883 -0.29809,57.9151 1.72695,86.80437 1.40821,23.04513 2.93874,46.0847 4.08293,69.14452 0.58207,15.64224 0.16935,31.34154 -1.75325,46.88534 -1.55026,13.6209 -3.65914,27.21688 -3.83439,40.95198 -0.31739,12.7223 -0.0745,25.45 -0.20395,38.1745 -0.0627,15.1926 0.0959,30.392 -0.38833,45.5778 -0.33957,5.4961 -1.52706,11.0973 -0.22683,16.552 0.38044,1.0022 0.92136,2.0414 1.90625,2.5626 -0.23458,-0.9849 1.15739,-1.7128 1.90625,-1.0938 3.94792,0.01 7.89607,-0.024 11.84375,0.031 0.76742,0.8789 1.68188,-0.523 1.6921,-1.3042 1.11789,-4.5886 0.0706,-9.2896 -0.12081,-13.92 -1.12639,-14.8114 -0.44416,-29.6729 -0.57129,-44.5085 0.0294,-12.7613 -0.0222,-25.5267 0.32131,-38.2841 0.35006,-10.5645 1.66723,-21.06348 3.20209,-31.51268 1.74543,-11.9778 3.40655,-24.0227 3.31395,-36.1545 0.0531,-19.38714 -3.31676,-38.54352 -4.91938,-57.81589 -1.35063,-18.89359 -1.49274,-37.8464 -1.70865,-56.77935 -0.19805,-26.20045 -0.23882,-52.40238 -0.16443,-78.60331 0.005,-5.50614 0.63081,-10.97938 1.04886,-16.46107 0.11921,-2.76364 0.1555,-5.66919 -0.85625,-8.27376 -0.24035,-0.32143 -1.2097,-1.83198 -1.51875,-1.10124 z"
       id="rect2987-0-3"
       inkscape:connector-curvature="0"
       sodipodi:nodetypes="zzzzzzzzzzzzzzzzzzzzzzzzzzzzzzzzzzzzzzzzzzzzzzzzzzzzzzzzzzzzzzzzz" />
    <path
       style="fill:#000000;fill-opacity:1;stroke:none"
       d="m 353,731.37515 c -2.41545,1.98565 -2.42632,5.42648 -2.1875,8.28125 1.12176,12.43356 1.28601,24.92851 1.16124,37.40464 0.13812,26.59047 0.0721,53.18221 0.43182,79.77117 0.3289,20.9394 0.46306,41.96357 3.43787,62.73534 1.60188,12.48008 3.41034,25.01657 3.06265,37.63187 -0.40583,13.2036 -2.66071,26.2448 -4.42675,39.31 -1.43446,9.79748 -2.14356,19.68948 -2.2996,29.58748 -0.33125,13.3336 -0.11931,26.6732 -0.17973,40.0094 0.0345,14.4351 -0.0534,28.8891 -1.20411,43.2857 -0.0203,2.6095 0.10995,5.4532 1.76661,7.6081 0.99627,0.4257 1.59675,-1.3626 2.625,-0.7188 3.85851,0.301 7.73214,-0.034 11.59375,0.1563 1.02825,0.6819 2.02052,-0.5432 1.98678,-1.5441 1.14857,-5.3483 -0.22404,-10.7804 -0.36182,-16.1597 -0.7842,-12.9043 -0.26971,-25.8375 -0.37496,-38.7555 0.0414,-15.2913 -0.12792,-30.6004 0.81206,-45.8702 0.57206,-9.0988 1.82409,-18.13448 3.23817,-27.13528 1.96793,-12.8548 3.56205,-25.86 2.8694,-38.8882 -0.89726,-19.51793 -6.09988,-38.5957 -6.38773,-58.16415 -0.38655,-15.62019 -0.29191,-31.24772 -0.37394,-46.87153 -0.0861,-29.28373 -0.18074,-58.56843 0.008,-87.85178 9e-4,-5.72739 0.99892,-11.40404 0.95177,-17.12966 -0.19624,-2.06539 -0.13962,-4.44195 -1.56869,-6.09257 -0.88152,-0.47227 -1.74936,0.6749 -2.70495,0.61897 -3.92228,-0.40537 -7.89828,-0.14453 -11.84375,-0.21875 -0.10658,-0.31082 0.79036,-1.20268 -0.0312,-1 z"
       id="rect2987-23-0"
       inkscape:connector-curvature="0"
       sodipodi:nodetypes="zzzzzzzzzzzzzzzzzzzzzzzzzzzzzzzzzzzzzzzzzzzzzzzzzzzzzzzzzzzzzzzzz" />
    <path
       style="fill:#000000;fill-opacity:1;stroke:none"
       d="m 398.78125,731.4689 c -0.17113,1.29307 -1.81308,1.14744 -2.75,0.90625 -3.68751,-0.009 -7.37525,0.0241 -11.0625,-0.0312 0.27941,-1.1539 -1.29091,-0.19262 -1.28125,0.46875 -0.15069,1.05754 -0.80908,2.05645 -0.8372,3.18113 -0.34938,3.22697 0.28117,6.45656 0.39321,9.68277 0.87738,10.60476 0.8779,21.25524 0.76281,31.88758 0.0898,29.92535 -0.10721,59.85171 0.22869,89.77603 0.26041,11.3647 1.02023,22.71916 2.13612,34.03137 0.76632,7.74652 1.95822,15.43954 2.92114,23.16163 1.42572,11.59271 2.24187,23.30711 1.41594,34.97961 -0.95623,17.6955 -4.6059,35.1121 -5.78118,52.78888 -1.26146,18.9546 -0.69764,37.9617 -0.92703,56.9421 -0.0581,10.0149 0.19643,20.0465 -0.44613,30.0466 -0.47531,5.2519 -1.25427,10.5963 -0.24137,15.8347 0.51088,0.9731 1.12105,1.9703 2.125,2.5 -0.63112,-0.8638 0.8432,-1.9556 1.5625,-1.25 4.01043,0.01 8.02107,-0.024 12.03125,0.031 0.89096,0.8566 1.74318,-0.6658 1.72335,-1.4917 0.69644,-2.9438 0.60227,-5.9879 0.21306,-8.9653 -1.01482,-10.4537 -1.09897,-20.9651 -0.94506,-31.4582 0.2989,-20.7521 0.12765,-41.5132 0.84477,-62.2577 0.67826,-19.04318 2.86711,-37.98828 5.05665,-56.90438 1.09164,-11.206 1.26921,-22.49981 0.51831,-33.73352 -0.75475,-8.90616 -1.77934,-17.78579 -2.92054,-26.65034 -1.77078,-13.78273 -3.09465,-27.63783 -3.33966,-41.53923 -0.18229,-8.84082 -0.0393,-17.68525 -0.1217,-26.52753 0.0156,-24.9365 -0.14613,-49.87561 0.11281,-74.81022 0.45908,-6.16458 1.7173,-12.41843 0.45176,-18.56798 -0.39811,-0.90039 -1.01827,-1.75338 -1.90625,-2.21875 l 0.0578,0.17343 0.005,0.0141 z"
       id="rect2987-7-7"
       inkscape:connector-curvature="0"
       sodipodi:nodetypes="zzzzzzzzzzzzzzzzzzzzzzzzzzzzzzzzzzzzzzzzzzzzzzzzzzzzzzzzzzzzzzzzz" />
    <path
       style="fill:#000000;fill-opacity:1;stroke:none"
       d="m 417,731.37515 c -2.42414,2.12876 -2.41737,5.66233 -2.1875,8.625 0.95501,10.59688 1.43384,21.24292 1.1875,31.88278 0.053,25.40195 -0.15152,50.80605 0.22611,76.20613 0.50594,16.83637 3.02554,33.5124 5.09483,50.20333 1.61236,12.93418 2.64442,25.98679 1.97576,39.02503 -0.9538,18.6954 -4.25821,37.1674 -5.73022,55.8179 -1.88883,24.04288 -1.51657,48.17988 -1.56648,72.27558 -0.0231,14.0604 0.23767,28.1571 -1.14848,42.1684 -0.10652,2.7458 -0.21459,5.6386 0.81238,8.2292 0.29964,0.5078 1.929,2.4138 1.61735,1.3166 0.17929,-1.2436 1.46504,-0.9155 2.26717,-0.75 3.82762,0.01 7.65545,-0.023 11.48283,0.031 0.70687,0.8915 1.58513,-0.3925 1.65625,-1.125 0.40339,-1.8864 0.68424,-3.8386 0.54346,-5.7888 -0.17871,-2.7742 -0.45348,-5.5432 -0.62437,-8.3189 -0.58706,-6.9052 -0.71452,-13.8375 -0.60205,-20.764 0.0425,-24.882 0.13636,-49.7643 0.3504,-74.6453 0.24481,-14.94038 0.93156,-29.89758 2.94186,-44.71578 1.89775,-14.6717 3.58342,-29.42013 3.4532,-44.23736 0.004,-12.83425 -1.4211,-25.60691 -2.94612,-38.33315 -1.65317,-13.63123 -3.20132,-27.30233 -3.41406,-41.04603 -0.38146,-15.62659 -0.21554,-31.25869 -0.32732,-46.88799 0.0263,-13.22476 -0.0947,-26.45479 0.27242,-39.67505 0.26881,-5.85081 1.74658,-11.8417 0.13383,-17.61879 -0.22148,-0.64955 -0.87585,-1.71626 -1.6388,-1.41228 -1.28782,1.26649 -3.10884,0.30287 -4.66901,0.50603 -3.0638,0.066 -6.12718,0.0359 -9.19219,0 0.11655,-0.22847 0.76309,-1.18253 0.0312,-0.96875 z"
       id="rect2987-5-8"
       inkscape:connector-curvature="0"
       sodipodi:nodetypes="zzzzzzzzzzzzzzzzzzzzzzzzzzzzzzzzzzzzzzzzzzzzzzzzzzzzzzzzzzzzzzzzz" />
    <path
       style="fill:#000000;fill-opacity:1;stroke:none"
       d="m 462.84375,731.5939 c -0.5519,1.35497 -2.25334,0.83616 -3.36561,0.78125 -3.50315,-0.008 -7.00651,0.0228 -10.50939,-0.0312 0.27941,-1.1539 -1.29091,-0.19262 -1.28125,0.46875 -0.15069,1.05754 -0.80908,2.05645 -0.8372,3.18113 -0.35837,3.47174 0.33988,6.94257 0.46867,10.41276 0.86339,10.6736 0.76734,21.3905 0.68103,32.08881 0.0487,19.21231 -0.13674,38.43288 0.54804,57.63632 0.81994,16.959 3.46183,33.76008 4.70536,50.68551 1.73255,21.35228 -0.24714,42.76378 -2.30101,64.01869 -1.39329,14.4233 -2.64108,28.8815 -2.68842,43.3826 -0.33589,19.90928 -0.20639,39.82188 -0.26397,59.73308 -0.0346,14.9204 0.12096,29.8468 -0.33122,44.7617 -0.54034,5.6937 -1.67741,11.5965 0.007,17.2004 0.35695,0.9728 1.50352,1.4912 2.23075,0.5864 1.59074,-0.6511 3.31509,0.2169 4.95936,-0.125 2.39905,-0.016 4.79935,0.045 7.19689,-0.062 0.87596,1.036 2.70934,0.1314 2.55022,-1.1758 1.42489,-4.681 0.0764,-9.5534 -0.0177,-14.3136 -1.05081,-13.1005 -0.43984,-26.2528 -0.59155,-39.3777 0.0747,-32.0763 -0.10001,-64.15558 0.38115,-96.22898 0.61687,-15.566 1.8817,-31.10158 3.5216,-46.59142 1.13292,-11.14495 2.13761,-22.33209 1.92118,-33.54675 -0.2242,-13.01069 -2.0195,-25.92251 -3.37842,-38.84653 -1.68292,-14.85441 -2.50478,-29.80508 -2.38651,-44.75496 0.0256,-16.71434 -0.20451,-33.43611 0.29294,-50.14423 0.18444,-5.9035 1.66701,-11.91668 0.17253,-17.75718 -0.31457,-0.70751 -0.71886,-2.06019 -1.68422,-1.9816 z"
       id="rect2987-9-6"
       inkscape:connector-curvature="0"
       sodipodi:nodetypes="zzzzzzzzzzzzzzzzzzzzzzzzzzzzzzzzzzzzzzzzzzzzzzzzzzzzzzzzzzzzzzzzz" />
    <path
       style="fill:#000000;fill-opacity:1;stroke:none"
       d="m 494.9375,731.5314 c -0.72333,1.48503 -2.60393,0.82271 -3.89684,0.8706 -3.35707,-0.0584 -6.71487,0.005 -10.07191,-0.0581 0.10245,-1.21204 -1.57409,0.0815 -1.35786,0.82625 -0.4804,1.43564 -0.99686,2.87845 -0.86089,4.42375 -0.0216,3.54958 0.51257,7.07232 0.68473,10.6145 0.77569,10.54164 0.62135,21.12072 0.57315,31.6823 0.0922,19.08697 -0.31155,38.27228 2.37082,57.22281 1.25495,10.40692 3.04862,20.74551 4.08363,31.17821 0.92534,10.49132 0.48605,21.07612 -1.06065,31.48744 -1.88355,13.67908 -4.32853,27.32778 -4.72603,41.16076 -0.73777,19.2115 -0.53514,38.4415 -0.5819,57.6629 -0.0213,29.21358 0.0608,58.42838 -0.23808,87.64088 -0.12256,5.8229 -0.0111,11.6675 -0.71709,17.4589 -0.36874,4.0415 -0.70412,8.2694 0.60645,12.1761 0.25846,0.4164 1.38817,2.0736 1.53622,1.2464 0.214,-1.3317 1.74493,-0.7926 2.64686,-0.75 3.70106,0.01 7.40233,-0.023 11.10314,0.031 0.90832,0.8012 1.75061,-0.6555 1.72454,-1.4915 1.20651,-5.0972 -0.23907,-10.2792 -0.28538,-15.4161 -0.8817,-14.3766 -0.36705,-28.7832 -0.47041,-43.1748 0.007,-26.7709 0.0217,-53.5419 0.0724,-80.31268 0.0918,-13.6412 0.11124,-27.2869 0.45618,-40.9231 0.95582,-15.04712 5.62375,-29.51773 7.652,-44.40778 1.21337,-8.74288 1.31579,-17.65543 0.0614,-26.40039 -1.45175,-10.33092 -4.17761,-20.42553 -5.92299,-30.7036 -2.19284,-13.50928 -2.28117,-27.2362 -2.23303,-40.88708 -0.0538,-13.9688 -0.26559,-27.94568 0.25776,-41.90787 0.3278,-5.21632 1.20411,-10.464 0.5625,-15.6875 -0.26267,-1.28406 -0.66813,-2.77582 -1.78125,-3.5625 l -0.0937,-0.0312 -0.0937,0.0312 z"
       id="rect2987-22-8"
       inkscape:connector-curvature="0"
       sodipodi:nodetypes="zzzzzzzzzzzzzzzzzzzzzzzzzzzzzzzzzzzzzzzzzzzzzzzzzzzzzzzzzzzzzzzzz" />
    <path
       style="fill:#000000;fill-opacity:1;stroke:none"
       d="m -241.25,731.45608 c -0.37724,1.34919 -2.08571,1.01434 -3.15151,0.9645 -3.54225,-0.11422 -7.08673,-0.0169 -10.62974,-0.0895 -0.50482,-1.13355 -1.6837,0.37248 -1.58641,1.13651 -0.71604,2.32039 -0.76966,4.75103 -0.54128,7.15057 0.38173,5.38168 0.95697,10.75135 1.06519,16.15042 0.32499,10.43604 0.0204,20.87711 0.125,31.31548 0.006,16.19469 0.14393,32.45625 2.46942,48.51548 1.96526,14.39023 4.20264,28.84025 3.80629,43.40961 -0.15089,12.02107 -2.1265,23.90489 -3.82788,35.77595 -1.3463,9.36553 -2.434,18.79884 -2.34335,28.27552 -0.21355,18.8011 -0.048,37.6041 -0.11565,56.40608 -0.0746,31.6735 0.0219,63.3478 -0.23883,95.0206 -0.23029,6.5209 -1.75702,13.0967 -0.4375,19.5938 0.36495,0.9583 1.01548,1.8095 1.875,2.375 -0.0422,-1.1871 1.50875,-1.5804 2.40625,-1.125 3.30181,0.064 6.60444,0 9.90625,0.062 0.83102,-0.5635 1.92291,1.0634 2.5625,-0.031 2.00125,-4.0464 0.79832,-8.6418 0.67459,-12.9324 -0.72369,-9.9882 -0.99669,-20.0082 -0.79465,-30.0207 0.15183,-30.9654 -0.0731,-61.9319 0.18199,-92.89668 0.2549,-17.2031 0.29354,-34.4368 1.89053,-51.58243 1.08803,-14.2288 3.19032,-28.39456 3.25031,-42.68918 0.0959,-7.69804 -0.46185,-15.38096 -1.155,-23.04243 -1.30128,-15.87906 -3.06409,-31.72716 -3.82359,-47.64588 -0.49422,-12.00968 -0.21096,-24.03335 -0.28668,-36.04947 0.0278,-8.72995 -0.0445,-17.46411 0.19859,-26.19077 0.17629,-5.18552 1.02663,-10.33733 0.97123,-15.52952 -0.16571,-1.85416 -0.23974,-3.91502 -1.32607,-5.48311 -0.32528,-0.27882 -0.61875,-0.96284 -1.125,-0.84375 z"
       id="rect2987-8"
       inkscape:connector-curvature="0"
       sodipodi:nodetypes="zzzzzzzzzzzzzzzzzzzzzzzzzzzzzzzzzzzzzzzzzzzzzzzzzzzzzzzzzzzzzzzzz" />
    <path
       style="fill:#000000;fill-opacity:1;stroke:none"
       d="m -209.25,731.68765 c -0.48812,1.28388 -2.06353,0.64872 -3.07967,0.6875 -3.56721,-0.008 -7.13463,0.0226 -10.70158,-0.0312 0.35725,-1.36834 -1.61763,-0.0471 -1.31976,0.79577 -1.64694,3.3641 -0.64673,7.18343 -0.56707,10.75031 0.85287,8.32906 1.07603,16.71036 0.89199,25.07731 0.11098,20.40323 -0.0188,40.82339 1.07401,61.20418 1.37097,16.94126 3.78205,33.80433 4.34955,50.80494 0.32687,11.8678 -0.20351,23.7399 -1.07346,35.57469 -0.7632,10.73916 -1.67646,21.46847 -2.17344,32.22507 -0.58619,12.0664 -1.18267,24.1327 -1.74484,36.2 -0.63172,18.62208 -0.33771,37.25748 -0.40573,55.88638 -0.0224,19.5631 0.0698,39.1325 -0.44038,58.6891 -0.40312,5.2453 -1.53203,10.6352 -0.12212,15.8235 0.45411,0.9104 1.12249,1.7224 2,2.25 -0.6631,-0.8802 0.8358,-1.9522 1.5625,-1.25 4.01042,0.01 8.02107,-0.024 12.03125,0.031 0.80098,1.0538 1.74947,-0.6671 1.66487,-1.4759 1.24698,-4.1259 0.0815,-8.4323 -0.0278,-12.6285 -1.01613,-12.3903 -0.64297,-24.8304 -0.66495,-37.2471 0.13161,-20.6171 -0.19289,-41.2397 0.33816,-61.8524 0.76226,-16.33298 2.57642,-32.59048 3.78508,-48.89098 0.74068,-11.0703 1.13723,-22.16374 1.06093,-33.2597 -0.15588,-12.56007 -0.50953,-25.121 -1.32472,-37.65772 -1.08469,-17.33711 -2.53252,-34.65366 -3.32189,-52.00843 -0.75971,-20.73696 -0.41411,-41.49243 -0.54089,-62.23835 0.008,-8.28594 0.009,-16.59313 0.91722,-24.8393 0.28333,-3.68479 0.55245,-7.49017 -0.44847,-11.08892 -0.20152,-0.57193 -1.27457,-2.06484 -1.71875,-1.53125 z"
       id="rect2987-2-43"
       inkscape:connector-curvature="0"
       sodipodi:nodetypes="zzzzzzzzzzzzzzzzzzzzzzzzzzzzzzzzzzzzzzzzzzzzzzzzzzzzzzzzzzzzzzzzz" />
    <path
       style="fill:#000000;fill-opacity:1;stroke:none"
       d="m -177.25,731.68765 c -0.48128,1.28843 -2.07285,0.7172 -3.07967,0.6875 -3.56721,-0.008 -7.13463,0.0226 -10.70158,-0.0312 0.44442,-1.35257 -1.57312,-0.0368 -1.29528,0.79229 -1.62113,3.20678 -0.65616,6.87298 -0.64254,10.29076 0.81033,9.10439 1.15796,18.24998 0.94094,27.38879 0.11234,28.93883 -0.29809,57.9151 1.72695,86.80437 1.40821,23.04513 2.93874,46.0847 4.08293,69.14452 0.58207,15.64224 0.16935,31.34154 -1.75325,46.88534 -1.55026,13.6209 -3.65914,27.21688 -3.83439,40.95198 -0.31739,12.7223 -0.0745,25.45 -0.20395,38.1745 -0.0627,15.1926 0.0959,30.392 -0.38833,45.5778 -0.33957,5.4961 -1.52706,11.0973 -0.22683,16.552 0.38044,1.0022 0.92136,2.0414 1.90625,2.5626 -0.23458,-0.9849 1.15739,-1.7128 1.90625,-1.0938 3.94792,0.01 7.89607,-0.024 11.84375,0.031 0.76742,0.8789 1.68188,-0.523 1.6921,-1.3042 1.11789,-4.5886 0.0706,-9.2896 -0.12081,-13.92 -1.12639,-14.8114 -0.44416,-29.6729 -0.57129,-44.5085 0.0294,-12.7613 -0.0222,-25.5267 0.32131,-38.2841 0.35006,-10.5645 1.66723,-21.06348 3.20209,-31.51268 1.74543,-11.9778 3.40655,-24.0227 3.31395,-36.1545 0.0532,-19.38714 -3.31676,-38.54352 -4.91938,-57.81589 -1.35063,-18.89359 -1.49274,-37.8464 -1.70865,-56.77935 -0.19805,-26.20045 -0.23882,-52.40238 -0.16443,-78.60331 0.005,-5.50614 0.63081,-10.97938 1.04886,-16.46107 0.11921,-2.76364 0.1555,-5.66919 -0.85625,-8.27376 -0.24035,-0.32143 -1.2097,-1.83198 -1.51875,-1.10124 z"
       id="rect2987-0-1"
       inkscape:connector-curvature="0"
       sodipodi:nodetypes="zzzzzzzzzzzzzzzzzzzzzzzzzzzzzzzzzzzzzzzzzzzzzzzzzzzzzzzzzzzzzzzzz" />
    <path
       style="fill:#000000;fill-opacity:1;stroke:none"
       d="m -159,731.37515 c -2.41545,1.98565 -2.42632,5.42648 -2.1875,8.28125 1.12176,12.43356 1.28601,24.92851 1.16124,37.40464 0.13812,26.59047 0.0721,53.18221 0.43182,79.77117 0.3289,20.9394 0.46306,41.96357 3.43787,62.73534 1.60188,12.48008 3.41034,25.01657 3.06265,37.63187 -0.40583,13.2036 -2.66071,26.2448 -4.42675,39.31 -1.43446,9.79748 -2.14356,19.68948 -2.2996,29.58748 -0.33125,13.3336 -0.11931,26.6732 -0.17973,40.0094 0.0345,14.4351 -0.0533,28.8891 -1.20411,43.2857 -0.0203,2.6095 0.10995,5.4532 1.76661,7.6081 0.99627,0.4257 1.59675,-1.3626 2.625,-0.7188 3.85851,0.301 7.73214,-0.034 11.59375,0.1563 1.02825,0.6819 2.02052,-0.5432 1.98678,-1.5441 1.14857,-5.3483 -0.22404,-10.7804 -0.36182,-16.1597 -0.7842,-12.9043 -0.26971,-25.8375 -0.37496,-38.7555 0.0414,-15.2913 -0.12792,-30.6004 0.81206,-45.8702 0.57206,-9.0988 1.82409,-18.13448 3.23817,-27.13528 1.96793,-12.8548 3.56205,-25.86 2.8694,-38.8882 -0.89726,-19.51793 -6.09988,-38.5957 -6.38773,-58.16415 -0.38655,-15.62019 -0.29191,-31.24772 -0.37394,-46.87153 -0.0861,-29.28373 -0.18074,-58.56843 0.008,-87.85178 9e-4,-5.72739 0.99892,-11.40404 0.95177,-17.12966 -0.19624,-2.06539 -0.13962,-4.44195 -1.56869,-6.09257 -0.88152,-0.47227 -1.74936,0.6749 -2.70495,0.61897 -3.92228,-0.40537 -7.89828,-0.14453 -11.84375,-0.21875 -0.10658,-0.31082 0.79036,-1.20268 -0.0312,-1 z"
       id="rect2987-23-4"
       inkscape:connector-curvature="0"
       sodipodi:nodetypes="zzzzzzzzzzzzzzzzzzzzzzzzzzzzzzzzzzzzzzzzzzzzzzzzzzzzzzzzzzzzzzzzz" />
    <path
       style="fill:#000000;fill-opacity:1;stroke:none"
       d="m -113.21875,731.4689 c -0.17113,1.29307 -1.81308,1.14744 -2.75,0.90625 -3.68751,-0.009 -7.37525,0.0241 -11.0625,-0.0312 0.27941,-1.1539 -1.29091,-0.19262 -1.28125,0.46875 -0.15069,1.05754 -0.80908,2.05645 -0.8372,3.18113 -0.34938,3.22697 0.28117,6.45656 0.39321,9.68277 0.87738,10.60476 0.8779,21.25524 0.76281,31.88758 0.0898,29.92535 -0.10721,59.85171 0.22869,89.77603 0.26041,11.3647 1.02023,22.71916 2.13612,34.03137 0.76632,7.74652 1.95822,15.43954 2.92114,23.16163 1.42572,11.59271 2.24187,23.30711 1.41594,34.97961 -0.95623,17.6955 -4.6059,35.1121 -5.78118,52.78888 -1.26146,18.9546 -0.69764,37.9617 -0.92703,56.9421 -0.0581,10.0149 0.19643,20.0465 -0.44613,30.0466 -0.47531,5.2519 -1.25427,10.5963 -0.24137,15.8347 0.51088,0.9731 1.12105,1.9703 2.125,2.5 -0.63112,-0.8638 0.8432,-1.9556 1.5625,-1.25 4.01043,0.01 8.02107,-0.024 12.03125,0.031 0.89096,0.8566 1.74318,-0.6658 1.72335,-1.4917 0.69644,-2.9438 0.60227,-5.9879 0.21306,-8.9653 -1.01482,-10.4537 -1.09897,-20.9651 -0.94506,-31.4582 0.2989,-20.7521 0.12765,-41.5132 0.84477,-62.2577 0.67826,-19.04318 2.86711,-37.98828 5.05665,-56.90438 1.09164,-11.206 1.26921,-22.49981 0.51831,-33.73352 -0.75475,-8.90616 -1.77934,-17.78579 -2.92054,-26.65034 -1.77078,-13.78273 -3.09465,-27.63783 -3.33966,-41.53923 -0.18229,-8.84082 -0.0393,-17.68525 -0.1217,-26.52753 0.0156,-24.9365 -0.14613,-49.87561 0.11281,-74.81022 0.45908,-6.16458 1.7173,-12.41843 0.45176,-18.56798 -0.39811,-0.90039 -1.01827,-1.75338 -1.90625,-2.21875 l 0.0578,0.17343 0.005,0.0141 z"
       id="rect2987-7-9"
       inkscape:connector-curvature="0"
       sodipodi:nodetypes="zzzzzzzzzzzzzzzzzzzzzzzzzzzzzzzzzzzzzzzzzzzzzzzzzzzzzzzzzzzzzzzzz" />
    <path
       style="fill:#000000;fill-opacity:1;stroke:none"
       d="m -94.999995,731.37515 c -2.42414,2.12876 -2.41737,5.66233 -2.1875,8.625 0.95501,10.59688 1.43384,21.24292 1.1875,31.88278 0.053,25.40195 -0.15152,50.80605 0.22611,76.20613 0.50594,16.83637 3.02554,33.5124 5.09483,50.20333 1.61236,12.93418 2.64442,25.98679 1.97576,39.02503 -0.9538,18.6954 -4.25821,37.1674 -5.73022,55.8179 -1.88883,24.04288 -1.51657,48.17988 -1.56648,72.27558 -0.0231,14.0604 0.23767,28.1571 -1.14848,42.1684 -0.10652,2.7458 -0.21459,5.6386 0.81238,8.2292 0.29964,0.5078 1.929,2.4138 1.61735,1.3166 0.17929,-1.2436 1.46504,-0.9155 2.26717,-0.75 3.82762,0.01 7.65545,-0.023 11.48283,0.031 0.70687,0.8915 1.58513,-0.3925 1.65625,-1.125 0.40339,-1.8864 0.68424,-3.8386 0.54346,-5.7888 -0.17871,-2.7742 -0.45348,-5.5432 -0.62437,-8.3189 -0.58706,-6.9052 -0.71452,-13.8375 -0.60205,-20.764 0.0425,-24.882 0.13636,-49.7643 0.3504,-74.6453 0.24481,-14.94038 0.93156,-29.89758 2.94186,-44.71578 1.89775,-14.6717 3.58342,-29.42013 3.4532,-44.23736 0.004,-12.83425 -1.4211,-25.60691 -2.94612,-38.33315 -1.65317,-13.63123 -3.20132,-27.30233 -3.41406,-41.04603 -0.38146,-15.62659 -0.21554,-31.25869 -0.32732,-46.88799 0.0263,-13.22476 -0.0947,-26.45479 0.27242,-39.67505 0.26881,-5.85081 1.74658,-11.8417 0.13383,-17.61879 -0.22148,-0.64955 -0.87585,-1.71626 -1.6388,-1.41228 -1.28782,1.26649 -3.10884,0.30287 -4.66901,0.50603 -3.0638,0.066 -6.12718,0.0359 -9.19219,0 0.11655,-0.22847 0.76309,-1.18253 0.0312,-0.96875 z"
       id="rect2987-5-2"
       inkscape:connector-curvature="0"
       sodipodi:nodetypes="zzzzzzzzzzzzzzzzzzzzzzzzzzzzzzzzzzzzzzzzzzzzzzzzzzzzzzzzzzzzzzzzz" />
    <path
       style="fill:#000000;fill-opacity:1;stroke:none"
       d="m -49.156245,731.5939 c -0.5519,1.35497 -2.25334,0.83616 -3.36561,0.78125 -3.50315,-0.008 -7.00651,0.0228 -10.50939,-0.0312 0.27941,-1.1539 -1.29091,-0.19262 -1.28125,0.46875 -0.15069,1.05754 -0.80908,2.05645 -0.8372,3.18113 -0.35837,3.47174 0.33988,6.94257 0.46867,10.41276 0.86339,10.6736 0.76734,21.3905 0.68103,32.08881 0.0487,19.21231 -0.13674,38.43288 0.54804,57.63632 0.81994,16.959 3.46183,33.76008 4.70536,50.68551 1.73255,21.35228 -0.24714,42.76378 -2.30101,64.01869 -1.39329,14.4233 -2.64108,28.8815 -2.68842,43.3826 -0.33589,19.90928 -0.20639,39.82188 -0.26397,59.73308 -0.0346,14.9204 0.12096,29.8468 -0.33122,44.7617 -0.54034,5.6937 -1.67741,11.5965 0.007,17.2004 0.35695,0.9728 1.50352,1.4912 2.23075,0.5864 1.59074,-0.6511 3.31509,0.2169 4.95936,-0.125 2.39905,-0.016 4.79935,0.045 7.19689,-0.062 0.87596,1.036 2.70934,0.1314 2.55022,-1.1758 1.42489,-4.681 0.0764,-9.5534 -0.0177,-14.3136 -1.05081,-13.1005 -0.43984,-26.2528 -0.59155,-39.3777 0.0747,-32.0763 -0.10001,-64.15558 0.38115,-96.22898 0.61687,-15.566 1.8817,-31.10158 3.5216,-46.59142 1.13292,-11.14495 2.13761,-22.33209 1.92118,-33.54675 -0.2242,-13.01069 -2.0195,-25.92251 -3.37842,-38.84653 -1.68292,-14.85441 -2.50478,-29.80508 -2.38651,-44.75496 0.0256,-16.71434 -0.20451,-33.43611 0.29294,-50.14423 0.18444,-5.9035 1.66701,-11.91668 0.17253,-17.75718 -0.31457,-0.70751 -0.71886,-2.06019 -1.68422,-1.9816 z"
       id="rect2987-9-0"
       inkscape:connector-curvature="0"
       sodipodi:nodetypes="zzzzzzzzzzzzzzzzzzzzzzzzzzzzzzzzzzzzzzzzzzzzzzzzzzzzzzzzzzzzzzzzz" />
    <path
       style="fill:#000000;fill-opacity:1;stroke:none"
       d="m -17.062495,731.5314 c -0.72333,1.48503 -2.60393,0.82271 -3.89684,0.8706 -3.35707,-0.0584 -6.71487,0.005 -10.07191,-0.0581 0.10245,-1.21204 -1.57409,0.0815 -1.35786,0.82625 -0.4804,1.43564 -0.99686,2.87845 -0.86089,4.42375 -0.0216,3.54958 0.51257,7.07232 0.68473,10.6145 0.77569,10.54164 0.62135,21.12072 0.57315,31.6823 0.0922,19.08697 -0.31155,38.27228 2.37082,57.22281 1.25495,10.40692 3.04862,20.74551 4.08363,31.17821 0.92534,10.49132 0.48605,21.07612 -1.06065,31.48744 -1.88355,13.67908 -4.32853,27.32778 -4.72603,41.16076 -0.73777,19.2115 -0.53514,38.4415 -0.5819,57.6629 -0.0213,29.21358 0.0608,58.42838 -0.23808,87.64088 -0.12256,5.8229 -0.0111,11.6675 -0.71709,17.4589 -0.36874,4.0415 -0.70412,8.2694 0.60645,12.1761 0.25846,0.4164 1.38817,2.0736 1.53622,1.2464 0.214,-1.3317 1.74493,-0.7926 2.64686,-0.75 3.70106,0.01 7.40233,-0.023 11.10314,0.031 0.90832,0.8012 1.75061,-0.6555 1.72454,-1.4915 1.20651,-5.0972 -0.23907,-10.2792 -0.28538,-15.4161 -0.8817,-14.3766 -0.36705,-28.7832 -0.47041,-43.1748 0.007,-26.7709 0.0217,-53.5419 0.0724,-80.31268 0.0918,-13.6412 0.11124,-27.2869 0.45618,-40.9231 0.95582,-15.04712 5.6237497,-29.51773 7.6519997,-44.40778 1.21337,-8.74288 1.31579,-17.65543 0.0614,-26.40039 -1.45175,-10.33092 -4.1776097,-20.42553 -5.9229897,-30.7036 -2.19284,-13.50928 -2.28117,-27.2362 -2.23303,-40.88708 -0.0538,-13.9688 -0.26559,-27.94568 0.25776,-41.90787 0.3278,-5.21632 1.20411,-10.464 0.5625,-15.6875 -0.26267,-1.28406 -0.66813,-2.77582 -1.78125,-3.5625 l -0.0937,-0.0312 -0.0937,0.0312 z"
       id="rect2987-22-6"
       inkscape:connector-curvature="0"
       sodipodi:nodetypes="zzzzzzzzzzzzzzzzzzzzzzzzzzzzzzzzzzzzzzzzzzzzzzzzzzzzzzzzzzzzzzzzz" />
  </g>
</svg>
