o nest_protect
# Generated by Q3Map2 (ydnar) -convert -format obj
mtllib nest_protect.mtl
g mat0model0surf0
# SURFACETYPE MST_PLANAR
usemtl textures/map_nest_chamber_13/nest
# vertex 1
v 16.000000 16.000000 -8.000000
vn 1.000000 0.000000 0.000000
vt 1.000000 0.999969
# vertex 2
v 16.000000 -16.000000 -8.000000
vn 1.000000 0.000000 0.000000
vt 0.000000 0.999969
# vertex 3
v 16.000000 16.000000 0.000000
vn 1.000000 0.000000 0.000000
vt 1.000000 1.000000
# vertex 4
v 16.000000 -16.000000 0.000000
vn 1.000000 0.000000 0.000000
vt 0.000000 1.000000
f 1/1/1 3/3/3 2/2/2
f 3/3/3 4/4/4 2/2/2
g mat0model0surf1
# SURFACETYPE MST_PLANAR
# vertex 5
v -16.000000 16.000000 0.000000
vn 0.000000 1.000000 0.000000
vt 1.000000 1.000000
# vertex 6
v -16.000000 16.000000 -8.000000
vn 0.000000 1.000000 0.000000
vt 1.000000 0.999969
# vertex 7
v 16.000000 16.000000 0.000000
vn 0.000000 1.000000 0.000000
vt 0.000000 1.000000
# vertex 8
v 16.000000 16.000000 -8.000000
vn 0.000000 1.000000 0.000000
vt 0.000000 0.999969
f 5/5/5 7/7/7 6/6/6
f 7/7/7 8/8/8 6/6/6
g mat0model0surf2
# SURFACETYPE MST_PLANAR
# vertex 9
v 16.000000 -16.000000 0.000000
vn 0.000000 0.000000 1.000000
vt 0.000000 0.000000
# vertex 10
v -16.000000 -16.000000 0.000000
vn 0.000000 0.000000 1.000000
vt 0.000000 1.000000
# vertex 11
v 16.000000 16.000000 0.000000
vn 0.000000 0.000000 1.000000
vt 1.000000 0.000000
# vertex 12
v -16.000000 16.000000 0.000000
vn 0.000000 0.000000 1.000000
vt 1.000000 1.000000
f 9/9/9 11/11/11 10/10/10
f 11/11/11 12/12/12 10/10/10
g mat0model0surf3
# SURFACETYPE MST_PLANAR
# vertex 13
v -16.000000 16.000000 -8.000000
vn 0.000000 0.000000 -1.000000
vt 1.000000 0.000000
# vertex 14
v -16.000000 -16.000000 -8.000000
vn 0.000000 0.000000 -1.000000
vt 0.000000 0.000000
# vertex 15
v 16.000000 16.000000 -8.000000
vn 0.000000 0.000000 -1.000000
vt 1.000000 1.000000
# vertex 16
v 16.000000 -16.000000 -8.000000
vn 0.000000 0.000000 -1.000000
vt 0.000000 1.000000
f 13/13/13 15/15/15 14/14/14
f 15/15/15 16/16/16 14/14/14
g mat0model0surf4
# SURFACETYPE MST_PLANAR
# vertex 17
v 16.000000 -16.000000 -8.000000
vn 0.000000 -1.000000 0.000000
vt 1.000000 0.999969
# vertex 18
v -16.000000 -16.000000 -8.000000
vn 0.000000 -1.000000 0.000000
vt 0.000000 0.999969
# vertex 19
v 16.000000 -16.000000 0.000000
vn 0.000000 -1.000000 0.000000
vt 1.000000 1.000000
# vertex 20
v -16.000000 -16.000000 0.000000
vn 0.000000 -1.000000 0.000000
vt 0.000000 1.000000
f 17/17/17 19/19/19 18/18/18
f 19/19/19 20/20/20 18/18/18
g mat0model0surf5
# SURFACETYPE MST_PLANAR
# vertex 21
v -16.000000 -16.000000 0.000000
vn -1.000000 0.000000 0.000000
vt 1.000000 1.000000
# vertex 22
v -16.000000 -16.000000 -8.000000
vn -1.000000 0.000000 0.000000
vt 1.000000 0.999969
# vertex 23
v -16.000000 16.000000 0.000000
vn -1.000000 0.000000 0.000000
vt 0.000000 1.000000
# vertex 24
v -16.000000 16.000000 -8.000000
vn -1.000000 0.000000 0.000000
vt 0.000000 0.999969
f 21/21/21 23/23/23 22/22/22
f 23/23/23 24/24/24 22/22/22
