# Blender v2.78 (sub 0) OBJ File: 'airwalk.blend'
# www.blender.org
mtllib middle_floor.mtl
o Mesh.004_mat4model0surf360.005
v -26.910309 -171.604797 -124.377945
v 2.271149 -246.010284 -117.662262
v -22.509583 -253.432175 -125.375427
v -35.264832 -289.868622 -125.871887
v -20.437103 -301.678284 -116.635941
v 4.302185 -349.971405 -119.561592
v 17.872467 -387.581451 -126.970955
v -12.049591 -350.283051 -124.461609
v -95.715393 -389.310181 -126.509842
v -139.273544 -274.228363 -129.352737
v -200.272659 -342.148315 -118.256905
v -220.307892 -395.156525 -121.166428
v -128.870468 -392.179291 -125.132141
v -177.755127 -388.923767 -121.338135
v -275.139191 -272.146301 -122.122200
v -263.257660 -318.577271 -123.195694
v -97.836365 -350.672394 -123.024757
v 137.349731 263.481934 -124.503143
v 106.327332 301.347351 -123.689285
v 64.721466 337.027405 -125.279991
v -95.985992 217.469131 -121.280472
v -40.095001 344.650330 -126.816345
v -140.250168 317.406372 -119.206741
v -77.563507 289.706238 -122.114708
v -103.656708 338.389099 -123.073349
v -161.305344 98.110550 -117.761345
v -259.346802 1.934493 -117.495209
v -99.403145 52.758804 -121.725517
v -81.051361 108.429977 -121.250000
v -135.475388 -23.462265 -122.577438
v -132.018234 -84.690231 -135.246643
v -277.956360 -203.003540 -123.902840
v -199.593994 -85.276016 -124.644966
v -276.684296 -129.732834 -123.944633
v 136.198364 186.201859 -124.765076
v 93.697784 106.764908 -128.819077
v 111.564178 122.677841 -124.323219
v 152.543030 115.327011 -124.195869
v 167.841797 46.281540 -126.996857
v 153.187561 24.746719 -134.695557
v 189.713257 22.221664 -131.540878
v 178.009888 -103.625259 -127.190483
v 262.818542 4.353592 -127.077339
v 203.207092 -108.782028 -122.701591
v 268.878296 -277.596436 -121.745682
v 197.758667 -339.352325 -113.921822
v 267.438171 -195.281860 -130.556488
v 267.323975 -258.069305 -127.175583
v 161.114868 -224.235779 -121.943596
v 180.276794 -257.284698 -122.691422
v 187.601868 -202.060120 -130.552567
v 105.728546 -239.992172 -121.088799
v 55.559357 -239.154922 -118.272629
v 53.182831 -229.541580 -126.875183
v 10.730225 -228.877853 -124.505920
v 143.276672 -265.015778 -119.163582
v 56.843475 -356.584381 -121.068810
v 91.002716 -335.729858 -111.899010
v 91.742432 -284.985291 -121.385071
v 76.527039 -395.941956 -123.963387
v 111.850739 -394.729218 -120.256004
v -96.294952 -275.581268 -133.905121
v -62.150452 -227.914230 -119.927864
v -60.423187 -172.973358 -131.463364
v 32.108093 -159.218063 -127.254425
v -42.699371 -385.901611 -126.458366
v -77.454102 -343.489777 -129.596649
v -61.130554 -314.548584 -125.442749
v -129.413330 -243.077744 -133.612106
v -199.602005 -280.233948 -120.977371
v -149.048630 -292.723572 -121.710785
v -234.713776 -255.708389 -130.694382
v -136.373962 212.281448 -120.451408
v -137.572769 127.675797 -120.048958
v -140.309692 158.621475 -122.444633
v -49.091919 104.342575 -126.562363
v -190.356842 68.953903 -115.795937
v -260.175720 -82.937088 -117.711998
v -269.439911 -384.720612 -119.074806
v 228.914246 -210.088318 -123.628769
v 262.021240 -387.161652 -116.953934
v 170.684021 -285.395691 -114.902855
v 190.224792 -389.938141 -115.333275
v 79.315674 -374.706848 -114.432106
v 118.371704 -292.905609 -112.703583
v 113.461578 -359.608490 -113.632133
v -117.302582 -178.484344 -136.242676
v -8.999115 -90.572861 -131.851639
v 96.506714 193.876724 -129.385544
v -52.508179 30.379776 -128.052139
v 222.091064 50.538956 -129.646591
v 40.004242 22.716110 -132.064377
v 113.822113 50.548203 -133.517502
v 263.329102 -174.822266 -130.029587
v 224.750244 -12.714188 -125.368492
v 271.971252 -102.858414 -124.085175
v -3.944122 339.150269 -125.631058
v -8.017761 244.524796 -131.318024
v 114.352295 -223.005096 -127.598213
v 104.515076 -136.378387 -130.158203
v 134.741272 -58.153000 -134.996613
v 55.148712 -50.179245 -131.920166
v 156.072998 -169.420654 -130.241455
v 195.647827 -41.030411 -132.582977
v 4.227020 -128.111526 -129.307846
v -83.429260 188.004166 -130.033264
v 130.306091 330.982758 -130.083145
vt -0.5913 -0.6924
vt -0.7979 0.2820
vt -1.7493 -0.3355
vt -1.7198 0.8434
vt -2.1389 0.2149
vt -0.8045 0.8567
vt -2.4670 1.4712
vt -2.0536 -0.2123
vt -1.7449 -1.0375
vt -2.7399 0.4391
vt -2.9307 0.1580
vt -1.9573 -1.0771
vt -3.7369 -0.1934
vt -3.7405 0.0924
vt -3.1286 0.8830
vt -4.3132 0.6157
vt -4.3782 -0.3824
vt -3.6009 1.1718
vt -4.3532 1.4832
vt -3.5659 3.2041
vt -3.7189 1.5251
vt -2.7657 2.3575
vt -4.4021 2.0313
vt -2.4409 2.1791
vt -2.5545 3.1774
vt -2.1096 3.7374
vt -2.3785 4.4081
vt -1.2351 4.4337
vt -3.1533 4.2359
vt -4.3402 2.8402
vt -4.4354 3.5449
vt -4.2488 4.3552
vt 6.4089 -2.5363
vt 5.2598 -1.8393
vt 5.1247 -2.5026
vt 4.0762 -2.0853
vt 7.0419 -2.0298
vt 7.6433 -1.3481
vt 7.5344 -2.4396
vt 6.1260 -0.1170
vt 5.2116 1.1434
vt 5.7112 1.3682
vt 4.7410 2.1032
vt 5.6327 2.0352
vt 6.8952 1.0318
vt 7.3772 2.0645
vt 7.6938 -0.2087
vt 7.7134 1.4471
vt 7.7959 0.3893
vt 3.8867 1.1409
vt 4.2256 2.0705
vt 2.1569 4.1230
vt 0.7386 4.1326
vt 0.7274 3.1413
vt 3.2641 2.9677
vt 1.7156 2.0723
vt 2.9335 1.1199
vt 2.5804 0.6757
vt 3.8100 0.6017
vt 3.7432 2.4753
vt 0.6762 2.0199
vt 0.2051 4.3575
vt 3.9451 -2.7622
vt 3.8139 -1.7776
vt 2.8695 -2.0931
vt 2.7976 -2.9920
vt 2.4288 -0.8611
vt 2.4311 -2.7369
vt 2.3831 -3.3434
vt 2.8431 -3.8923
vt 1.3372 -3.4169
vt 2.0658 -4.5548
vt 1.7895 -3.9218
vt 0.2130 -3.5492
vt 0.3038 -3.1272
vt -0.7822 -2.7498
vt -4.5538 -1.9509
vt -3.9598 -2.0059
vt -4.1772 -1.4435
vt -3.6557 -3.4069
vt -4.4683 -4.4702
vt -2.6339 -4.6088
vt -4.4982 -3.2670
vt -2.7548 -2.9695
vt -2.8680 -2.1055
vt -3.5566 -1.6499
vt -3.8835 -1.0551
vt -2.7080 -1.6544
vt -2.2951 -4.5898
vt -2.2738 -3.1389
vt -1.3296 -3.2658
vt -0.9008 -4.5248
vt -1.2402 -4.5865
vt -1.5042 -3.9461
vt -1.6639 -2.0457
vt -1.7222 -2.8256
vt -2.3975 -2.5172
vt -1.9658 -1.8988
vt -0.2234 -1.9008
vt -4.5499 -1.3541
vt -0.8765 1.7944
vt -0.0710 -0.2330
vt -1.9285 2.0069
vt 0.5565 -0.0208
vt 1.2151 -1.0950
vt 0.2935 -4.6850
vt 1.0682 -2.4122
vn 0.0280 0.0391 0.9988
vn -0.0848 0.1393 0.9866
vn -0.0052 0.1644 0.9864
vn -0.2440 0.0785 0.9666
vn -0.1055 0.0718 0.9918
vn -0.1602 0.1138 0.9805
vn -0.0945 0.0362 0.9948
vn -0.1863 0.2845 0.9404
vn -0.0119 0.3533 0.9354
vn -0.1696 -0.0033 0.9855
vn -0.3374 -0.0753 0.9383
vn -0.0100 0.3387 0.9408
vn -0.1192 -0.1647 0.9791
vn -0.1517 -0.1240 0.9806
vn -0.1219 -0.0219 0.9923
vn -0.0319 -0.0110 0.9994
vn -0.0426 -0.1462 0.9883
vn 0.0190 0.0319 0.9993
vn 0.0704 -0.0290 0.9971
vn 0.0041 0.0029 1.0000
vn 0.1912 0.0257 0.9812
vn 0.1331 0.1825 0.9741
vn 0.0488 -0.0729 0.9961
vn 0.1131 0.1896 0.9753
vn 0.0313 0.2469 0.9685
vn 0.0707 0.1531 0.9857
vn 0.0795 0.0761 0.9939
vn 0.0876 -0.0125 0.9961
vn -0.0425 0.0264 0.9987
vn 0.0518 -0.0408 0.9978
vn 0.0225 -0.0633 0.9977
vn -0.0163 0.0072 0.9998
vn -0.0139 -0.0132 0.9998
vn -0.0688 0.0004 0.9976
vn -0.0920 0.0205 0.9955
vn -0.1278 -0.0249 0.9915
vn 0.0305 0.0406 0.9987
vn -0.0114 -0.0091 0.9999
vn 0.1113 0.1227 0.9862
vn 0.0210 -0.0348 0.9991
vn 0.1281 -0.0320 0.9912
vn 0.2152 -0.0775 0.9735
vn 0.0825 0.0287 0.9962
vn 0.0239 -0.0262 0.9994
vn 0.0724 -0.0082 0.9973
vn 0.0534 0.0244 0.9983
vn 0.0186 -0.0251 0.9995
vn 0.0641 0.0540 0.9965
vn 0.0038 0.0826 0.9966
vn 0.1166 0.0332 0.9926
vn 0.0432 0.0646 0.9969
vn 0.0540 -0.0448 0.9975
vn 0.1097 -0.0920 0.9897
vn 0.1155 -0.1568 0.9808
vn 0.0481 -0.0349 0.9982
vn 0.1086 -0.1177 0.9871
vn 0.0877 -0.0373 0.9954
vn 0.0655 -0.0417 0.9969
vn 0.0797 0.0132 0.9967
vn 0.0544 0.0067 0.9985
vn 0.0710 -0.0883 0.9935
vn 0.0879 -0.0597 0.9943
vn 0.0020 -0.0249 0.9997
vn -0.0664 -0.0504 0.9965
vn -0.0315 -0.0801 0.9963
vn -0.0401 -0.1482 0.9881
vn 0.0258 -0.0216 0.9994
vn -0.0623 -0.1152 0.9914
vn -0.0569 -0.0657 0.9962
vn -0.0049 -0.0351 0.9994
vn -0.1825 0.0546 0.9817
vn -0.0073 0.0528 0.9986
vn -0.0781 0.0549 0.9954
vn -0.0722 0.0074 0.9973
vn -0.1129 0.0640 0.9915
vn -0.0193 -0.0146 0.9997
vn -0.0201 -0.2297 0.9731
vn 0.0146 -0.0889 0.9959
vn -0.2212 -0.2138 0.9515
vn 0.0360 0.0119 0.9993
vn 0.0548 0.0104 0.9984
vn 0.0610 0.1629 0.9847
vn 0.0078 -0.0519 0.9986
vn 0.0360 0.1361 0.9900
vn -0.0960 0.1796 0.9790
vn -0.1606 0.0617 0.9851
vn -0.1302 -0.0595 0.9897
vn -0.0793 0.0825 0.9934
vn 0.0749 0.1424 0.9869
vn 0.0509 0.1195 0.9915
vn -0.0332 0.1916 0.9809
vn 0.0161 -0.0616 0.9980
vn 0.0605 0.0663 0.9959
vn 0.0249 0.2476 0.9685
vn -0.0226 0.2332 0.9721
vn -0.0291 0.2470 0.9685
vn -0.0017 0.1442 0.9895
vn 0.0064 0.1697 0.9854
vn 0.0066 0.0293 0.9995
vn -0.1713 -0.2909 0.9413
vn 0.0064 0.0135 0.9999
vn -0.0357 0.0696 0.9969
vn 0.0566 0.0516 0.9970
vn -0.0274 0.0141 0.9995
vn 0.0152 0.0178 0.9997
vn 0.0222 -0.0241 0.9995
vn -0.0153 0.0432 0.9989
g Mesh.004_mat4model0surf360.005_textures/common/base2
usemtl textures/common/base2
s 1
f 65/1/1 1/2/2 55/3/3
f 1/2/2 63/4/4 3/5/5
f 55/3/3 1/2/2 3/5/5
f 63/4/4 64/6/6 62/7/7
f 55/3/3 2/8/8 54/9/9
f 2/8/8 55/3/3 3/5/5
f 3/5/5 4/10/10 5/11/11
f 53/12/12 5/11/11 6/13/13
f 5/11/11 8/14/14 6/13/13
f 53/12/12 2/8/8 5/11/11
f 4/10/10 68/15/15 8/14/14
f 8/14/14 68/15/15 66/16/16
f 5/11/11 4/10/10 8/14/14
f 6/13/13 8/14/14 7/17/17
f 66/16/16 7/17/17 8/14/14
f 3/5/5 63/4/4 4/10/10
f 63/4/4 68/15/15 4/10/10
f 62/7/7 68/15/15 63/4/4
f 66/16/16 67/18/18 9/19/19
f 11/20/20 17/21/21 71/22/22
f 17/21/21 13/23/23 9/19/19
f 67/18/18 17/21/21 9/19/19
f 10/24/24 70/25/25 71/22/22
f 10/24/24 72/26/26 70/25/25
f 72/26/26 15/27/27 70/25/25
f 72/26/26 32/28/28 15/27/27
f 70/25/25 15/27/27 16/29/29
f 16/29/29 11/20/20 70/25/25
f 13/23/23 17/21/21 11/20/20
f 14/30/30 13/23/23 11/20/20
f 70/25/25 11/20/20 71/22/22
f 12/31/31 14/30/30 11/20/20
f 79/32/32 12/31/31 11/20/20
f 16/29/29 79/32/32 11/20/20
f 10/24/24 17/21/21 67/18/18
f 71/22/22 17/21/21 10/24/24
f 18/33/33 89/34/34 35/35/35
f 37/36/36 35/35/35 89/34/34
f 19/37/37 89/34/34 18/33/33
f 20/38/38 19/37/37 107/39/39
f 89/34/34 19/37/37 20/38/38
f 19/37/37 18/33/33 107/39/39
f 89/34/34 20/38/38 98/40/40
f 106/41/41 21/42/42 75/43/43
f 21/42/42 73/44/44 75/43/43
f 24/45/45 21/42/42 106/41/41
f 23/46/46 73/44/44 21/42/42
f 97/47/47 24/45/45 98/40/40
f 23/46/46 21/42/42 24/45/45
f 25/48/48 24/45/45 22/49/49
f 24/45/45 25/48/48 23/46/46
f 29/50/50 106/41/41 75/43/43
f 29/50/50 75/43/43 74/51/51
f 27/52/52 78/53/53 33/54/54
f 27/52/52 33/54/54 77/55/55
f 30/56/56 77/55/55 33/54/54
f 30/56/56 28/57/57 77/55/55
f 90/58/58 76/59/59 28/57/57
f 28/57/57 26/60/60 77/55/55
f 90/58/58 28/57/57 30/56/56
f 28/57/57 76/59/59 29/50/50
f 90/58/58 30/56/56 31/61/61
f 31/61/61 30/56/56 33/54/54
f 33/54/54 78/53/53 34/62/62
f 33/54/54 34/62/62 31/61/61
f 37/36/36 38/63/63 35/35/35
f 37/36/36 89/34/34 36/64/64
f 37/36/36 93/65/65 39/66/66
f 93/65/65 37/36/36 36/64/64
f 37/36/36 39/66/66 38/63/63
f 93/65/65 36/64/64 92/67/67
f 39/66/66 93/65/65 40/68/68
f 39/66/66 40/68/68 41/69/69
f 41/69/69 91/70/70 39/66/66
f 41/69/69 40/68/68 104/71/71
f 43/72/72 91/70/70 41/69/69
f 43/72/72 41/69/69 95/73/73
f 39/66/66 91/70/70 38/63/63
f 95/73/73 41/69/69 104/71/71
f 104/71/71 44/74/74 95/73/73
f 44/74/74 104/71/71 42/75/75
f 43/72/72 95/73/73 44/74/74
f 44/74/74 42/75/75 103/76/76
f 61/77/77 86/78/78 84/79/79
f 2/8/8 3/5/5 5/11/11
f 46/80/80 81/81/81 45/82/82
f 81/81/81 46/80/80 83/83/83
f 86/78/78 46/80/80 82/84/84
f 86/78/78 83/83/83 46/80/80
f 85/85/85 58/86/86 82/84/84
f 82/84/84 58/86/86 86/78/78
f 57/87/87 84/79/79 58/86/86
f 58/86/86 85/85/85 59/88/88
f 45/82/82 48/89/89 50/90/90
f 45/82/82 82/84/84 46/80/80
f 50/90/90 82/84/84 45/82/82
f 51/91/91 94/92/92 44/74/74
f 51/91/91 47/93/93 94/92/92
f 48/89/89 47/93/93 80/94/94
f 48/89/89 80/94/94 50/90/90
f 99/95/95 51/91/91 103/76/76
f 50/90/90 80/94/94 49/96/96
f 51/91/91 49/96/96 80/94/94
f 51/91/91 80/94/94 47/93/93
f 50/90/90 49/96/96 56/97/97
f 49/96/96 51/91/91 99/95/95
f 49/96/96 99/95/95 52/98/98
f 56/97/97 49/96/96 52/98/98
f 59/88/88 52/98/98 53/12/12
f 99/95/95 53/12/12 52/98/98
f 99/95/95 100/99/99 54/9/9
f 54/9/9 53/12/12 99/95/95
f 65/1/1 55/3/3 54/9/9
f 82/84/84 56/97/97 85/85/85
f 56/97/97 82/84/84 50/90/90
f 56/97/97 59/88/88 85/85/85
f 52/98/98 59/88/88 56/97/97
f 58/86/86 84/79/79 86/78/78
f 60/100/100 61/77/77 84/79/79
f 58/86/86 59/88/88 57/87/87
f 7/17/17 60/100/100 57/87/87
f 57/87/87 53/12/12 6/13/13
f 84/79/79 57/87/87 60/100/100
f 6/13/13 7/17/17 57/87/87
f 59/88/88 53/12/12 57/87/87
f 54/9/9 2/8/8 53/12/12
f 87/101/101 62/7/7 64/6/6
f 64/6/6 63/4/4 1/2/2
f 65/1/1 105/102/102 1/2/2
f 64/6/6 1/2/2 105/102/102
f 66/16/16 68/15/15 67/18/18
f 62/7/7 69/103/103 10/24/24
f 68/15/15 62/7/7 67/18/18
f 72/26/26 10/24/24 69/103/103
f 32/28/28 72/26/26 69/103/103
f 98/40/40 24/45/45 106/41/41
f 24/45/45 97/47/47 22/49/49
f 106/41/41 29/50/50 76/59/59
f 29/50/50 26/60/60 28/57/57
f 29/50/50 74/51/51 26/60/60
f 103/76/76 100/99/99 99/95/95
f 86/78/78 61/77/77 83/83/83
f 69/103/103 62/7/7 87/101/101
f 34/62/62 32/28/28 69/103/103
f 69/103/103 87/101/101 34/62/62
f 87/101/101 31/61/61 34/62/62
f 87/101/101 88/104/104 31/61/61
f 87/101/101 64/6/6 88/104/104
f 98/40/40 20/38/38 97/47/47
f 98/40/40 36/64/64 89/34/34
f 36/64/64 98/40/40 106/41/41
f 76/59/59 36/64/64 106/41/41
f 36/64/64 76/59/59 92/67/67
f 76/59/59 90/58/58 92/67/67
f 88/104/104 105/102/102 102/105/105
f 92/67/67 102/105/105 93/65/65
f 44/74/74 103/76/76 51/91/91
f 94/92/92 96/106/106 44/74/74
f 104/71/71 40/68/68 101/107/107
f 43/72/72 44/74/74 96/106/106
f 105/102/102 88/104/104 64/6/6
f 31/61/61 88/104/104 90/58/58
f 90/58/58 88/104/104 92/67/67
f 101/107/107 40/68/68 93/65/65
f 100/99/99 65/1/1 54/9/9
f 65/1/1 100/99/99 102/105/105
f 100/99/99 42/75/75 101/107/107
f 101/107/107 42/75/75 104/71/71
f 100/99/99 101/107/107 102/105/105
f 105/102/102 65/1/1 102/105/105
f 102/105/105 92/67/67 88/104/104
f 93/65/65 102/105/105 101/107/107
f 100/99/99 103/76/76 42/75/75
f 62/7/7 10/24/24 67/18/18
